<svg width="16" height="16" viewBox="0 0 16 16" fill="none" xmlns="http://www.w3.org/2000/svg">
<path fill-rule="evenodd" clip-rule="evenodd" d="M10.6792 10.0403H11.4094L15.9732 14.604L14.604 15.9732L10.0403 11.4094V10.6792L9.76644 10.4054C8.76242 11.3181 7.39329 11.8658 5.93289 11.8658C2.64698 11.8658 0 9.21879 0 5.93289C0 2.64698 2.64698 0 5.93289 0C9.21879 0 11.8658 2.64698 11.8658 5.93289C11.8658 7.39329 11.3182 8.76242 10.4054 9.76644L10.6792 10.0403ZM1.8255 5.93289C1.8255 8.21477 3.65101 10.0403 5.93289 10.0403C8.21477 10.0403 10.0403 8.21477 10.0403 5.93289C10.0403 3.65101 8.21477 1.8255 5.93289 1.8255C3.65101 1.8255 1.8255 3.65101 1.8255 5.93289Z" fill="#F99F1B"/>
</svg>
