<?xml version="1.0" encoding="UTF-8"?>
<svg width="185px" height="89px" viewBox="0 0 185 89" version="1.1" xmlns="http://www.w3.org/2000/svg" xmlns:xlink="http://www.w3.org/1999/xlink">
    <title>Без поручителей</title>
    <defs>
        <linearGradient x1="99.9903732%" y1="49.9991982%" x2="-0.00251777251%" y2="49.9991982%" id="linearGradient-1">
            <stop stop-color="#C7FFFF" offset="0%"></stop>
            <stop stop-color="#C3FFFF" stop-opacity="0.8966" offset="14.77%"></stop>
            <stop stop-color="#B7FFFF" stop-opacity="0.7932" offset="29.54%"></stop>
            <stop stop-color="#A3FFFF" stop-opacity="0.6897" offset="44.33%"></stop>
            <stop stop-color="#87FFFF" stop-opacity="0.5861" offset="59.13%"></stop>
            <stop stop-color="#62FFFF" stop-opacity="0.4824" offset="73.94%"></stop>
            <stop stop-color="#37FFFF" stop-opacity="0.3801" offset="88.55%"></stop>
            <stop stop-color="#0FFFFF" stop-opacity="0.3" offset="100%"></stop>
        </linearGradient>
        <linearGradient x1="11.3532174%" y1="211.803057%" x2="58.8427826%" y2="12.0130867%" id="linearGradient-2">
            <stop stop-color="#99D3EF" offset="30.31%"></stop>
            <stop stop-color="#6CB4D8" offset="100%"></stop>
        </linearGradient>
        <linearGradient x1="49.9839147%" y1="-259.923678%" x2="49.9839147%" y2="187.73728%" id="linearGradient-3">
            <stop stop-color="#E6F5FF" offset="0%"></stop>
            <stop stop-color="#E0F2FE" offset="9.955081%"></stop>
            <stop stop-color="#D0EBFA" offset="22.96%"></stop>
            <stop stop-color="#B5DFF5" offset="37.6%"></stop>
            <stop stop-color="#99D3EF" offset="49.78%"></stop>
        </linearGradient>
        <linearGradient x1="75.0200856%" y1="-75.7041176%" x2="20.020891%" y2="200.753676%" id="linearGradient-4">
            <stop stop-color="#99D3EF" offset="30.31%"></stop>
            <stop stop-color="#6CB4D8" offset="100%"></stop>
        </linearGradient>
        <linearGradient x1="49.045155%" y1="-77.6822727%" x2="49.7812016%" y2="23.1010156%" id="linearGradient-5">
            <stop stop-color="#E6F5FF" offset="0%"></stop>
            <stop stop-color="#E0F2FE" offset="9.955081%"></stop>
            <stop stop-color="#D0EBFA" offset="22.96%"></stop>
            <stop stop-color="#B5DFF5" offset="37.6%"></stop>
            <stop stop-color="#99D3EF" offset="49.78%"></stop>
        </linearGradient>
        <linearGradient x1="48.6374854%" y1="-116.236451%" x2="50.1045713%" y2="62.8052758%" id="linearGradient-6">
            <stop stop-color="#E6F5FF" offset="0%"></stop>
            <stop stop-color="#D4EDFB" offset="5.189627%"></stop>
            <stop stop-color="#BEE4F7" offset="13.51%"></stop>
            <stop stop-color="#ADDCF3" offset="23.35%"></stop>
            <stop stop-color="#A2D7F1" offset="35.53%"></stop>
            <stop stop-color="#9BD4EF" offset="52.6%"></stop>
            <stop stop-color="#99D3EF" offset="100%"></stop>
        </linearGradient>
    </defs>
    <g id="Page-1" stroke="none" stroke-width="1" fill="none" fill-rule="evenodd">
        <g id="Меню-второго-уровня-1" transform="translate(-843.000000, -184.000000)">
            <g id="Без-поручителей" transform="translate(843.000000, 184.000000)">
                <g id="Group-3">
                    <rect id="Rectangle" fill="#F9FDFF" x="0" y="0" width="184.319978" height="88.0639895"></rect>
                    <g id="Group-33" transform="translate(21.639997, 7.119999)">
                        <g id="Group" transform="translate(25.019992, 62.072000) scale(-1, 1) translate(-25.019992, -62.072000) translate(0.519992, 48.072000)" stroke="#B3DAFF" stroke-dasharray="2.787839723358161" stroke-width="0.5">
                            <path d="M0.93690166,14.0320414 L24.7283255,27.7677275 L48.4639926,14.0320414 L24.6056606,0.103994385 L0.93690166,14.0320414 Z" id="Path-Copy"></path>
                        </g>
                        <g id="Group-2" transform="translate(90.735991, 38.207996)">
                            <path d="M1.86264493e-12,24.1681157 L23.7914238,37.9038018 L47.5270909,24.1681157 L23.6687589,10.2400686 L1.86264493e-12,24.1681157 Z" id="Path" stroke="#B3DAFF" stroke-width="0.5" stroke-dasharray="2.787839723358161"></path>
                            <path d="M22.8909516,27.5473409 L0.379146197,14.5504323 C-0.125452786,14.2577091 -0.125452786,13.5300829 0.379146197,13.2373598 L22.8909516,0.240451173 C23.4485196,-0.0801503908 24.1343281,-0.0801503908 24.6946839,0.240451173 L47.2064893,13.2373598 C47.7110883,13.5300829 47.7110883,14.2577091 47.2064893,14.5504323 L24.6946839,27.5473409 C24.137116,27.8707303 23.4485196,27.8707303 22.8909516,27.5473409 Z" id="Path" fill="#B0E1F9" fill-rule="nonzero"></path>
                            <path d="M47.2064893,13.9649859 L24.6946839,26.9618945 C24.137116,27.2824961 23.4485196,27.2824961 22.8909516,26.9618945 L0.379146197,13.9649859 C0.228602854,13.8785629 0.125452786,13.7531101 0.0641203127,13.6109303 C-0.0808473508,13.945471 0.0250905571,14.3664348 0.379146197,14.5699471 L22.8909516,27.5668557 C23.4485196,27.8874573 24.1343281,27.8874573 24.6946839,27.5668557 L47.2064893,14.5699471 C47.560545,14.363647 47.6664829,13.9426832 47.5215152,13.6109303 C47.4601827,13.7531101 47.3570327,13.8785629 47.2064893,13.9649859 Z" id="Path" fill="#73C2EA" fill-rule="nonzero"></path>
                            <polygon id="Path" fill="#99D3EF" fill-rule="nonzero" points="11.1541466 12.7885176 19.1663978 8.16070371 27.1814369 12.7885176 19.1663978 17.3522111"></polygon>
                            <polygon id="Path" fill="#87CBEC" fill-rule="nonzero" points="11.1541466 12.7885176 19.1663978 17.3522111 27.1814369 12.7885176 27.1814369 12.9613636 19.1663978 17.5083302 11.1541466 12.9139704"></polygon>
                            <polygon id="Path" fill="#CCE9F7" fill-rule="nonzero" points="21.2572776 14.589462 29.2723167 9.96443598 37.2873557 14.589462 29.2723167 19.1531556"></polygon>
                            <polygon id="Path" fill="#87CBEC" fill-rule="nonzero" points="21.2572776 14.589462 29.2723167 19.1531556 37.2873557 14.589462 37.2873557 14.7623081 29.2723167 19.3120624 21.2572776 14.7177026"></polygon>
                        </g>
                        <g id="Group" transform="translate(1.056000, 15.407998)" fill-rule="nonzero">
                            <g id="Path">
                                <path d="M1.41714392,6.30745205 L11.7224132,0.358157959 C12.5568244,-0.123903294 13.4977151,0.466573341 13.4977151,1.42875986 L13.4977151,8.65387068 L13.4977151,11.761133 L10.8086264,10.2084698 L1.91469309,15.3485205 C1.08028184,15.8267098 0.0425917572,15.2246172 0.0425917572,14.2643667 L0.0425917572,8.68678249 C0.0445277462,7.70523608 0.567244767,6.79919325 1.41714392,6.30745205 Z" fill="#6ABEE8"></path>
                                <path d="M0.0445277462,8.69646243 C0.0445277462,7.71491603 0.569180756,6.8069372 1.41907991,6.317132 L11.7088613,0.367837903 C12.1928585,0.0871195035 12.6942796,0.116159338 13.1163252,0.499485153 C12.8452868,0.453021418 12.5800563,0.480125263 12.3090178,0.635004381 L2.00374858,6.58429847 C1.15384942,7.07603967 0.629196414,7.98208251 0.629196414,8.96362891 L0.629196414,14.5412131 C0.629196414,14.9438988 0.811179377,15.2826969 1.08608981,15.5072716 C0.520781032,15.4085362 0.0445277462,14.9245389 0.0445277462,14.2740466 L0.0445277462,8.69646243 Z" fill="url(#linearGradient-1)"></path>
                            </g>
                            <path d="M1.98438869,9.25983522 L10.7640986,4.19141611 C10.8589621,4.13720842 10.9770574,4.20496803 10.9770574,4.31338342 L10.9770574,4.34435924 C10.9770574,4.51859825 10.88413,4.68122132 10.7311868,4.76834082 L1.95341287,9.80578411 C1.85854941,9.8599918 1.74239007,9.79223219 1.74239007,9.68381681 L1.74239007,9.68381681 C1.73851809,9.50764181 1.83338155,9.34695473 1.98438869,9.25983522 Z" id="Path" fill="#A9E5FF"></path>
                            <path d="M1.98438869,10.5008041 L10.7640986,5.43238504 C10.8589621,5.37817735 10.9770574,5.44593696 10.9770574,5.55435234 L10.9770574,5.58532817 C10.9770574,5.75956717 10.88413,5.92219025 10.7311868,6.00930975 L1.95341287,11.046753 C1.85854941,11.1009607 1.74239007,11.0332011 1.74239007,10.9247857 L1.74239007,10.9247857 C1.73851809,10.7486107 1.83338155,10.5879237 1.98438869,10.5008041 Z" id="Path" fill="#99E0FF"></path>
                            <path d="M1.98438869,11.7417731 L10.7640986,6.67335396 C10.8589621,6.61914627 10.9770574,6.68690589 10.9770574,6.79532127 L10.9770574,6.82629709 C10.9770574,7.0005361 10.88413,7.16315917 10.7311868,7.25027868 L1.95341287,12.287722 C1.85854941,12.3419297 1.74239007,12.27417 1.74239007,12.1657547 L1.74239007,12.1657547 C1.73851809,11.9895797 1.83338155,11.8288926 1.98438869,11.7417731 Z" id="Path" fill="#8DD6FF"></path>
                        </g>
                        <g id="Group" transform="translate(83.287989, 0.000000)" fill-rule="nonzero">
                            <g id="Path">
                                <path d="M26.2520104,13.3796197 L3.97264936,0.516909054 C2.17024363,-0.522717021 0.133583239,0.751163719 0.133583239,2.83235186 L0.133583239,18.4538468 L0.133583239,25.1717285 L5.9473581,21.8147237 L25.1756005,32.9292363 C26.9780062,33.9611184 29.2218174,32.6601339 29.2218174,30.5847537 L29.2218174,18.5254784 C29.2218174,16.4016985 28.0892639,14.4405417 26.2520104,13.3796197 Z" fill="#95D1EE"></path>
                                <path d="M29.2218174,18.5429023 C29.2218174,16.4210584 28.0892639,14.4599016 26.2520104,13.3989796 L4.00556117,0.534332955 C2.95819114,-0.0696956028 1.87403732,-0.00967994483 0.962186516,0.818923332 C1.54879117,0.716315917 2.12184391,0.776331575 2.70651257,1.11319366 L24.9858736,13.9759043 C26.8231271,15.0368263 27.9556807,16.9979831 27.9556807,19.119827 L27.9556807,31.1791023 C27.9556807,32.0502973 27.5607389,32.7821012 26.9702623,33.2660984 C28.1938073,33.0531396 29.2218174,32.0057696 29.2218174,30.6002416 L29.2218174,18.5429023 Z" fill="#79C4EB"></path>
                            </g>
                            <path d="M4.10236062,5.86604657 L24.1746942,17.4355166 C24.4631566,17.6020117 24.6393316,17.9078979 24.6393316,18.240888 L24.6393316,18.240888 C24.6393316,18.4790147 24.381845,18.6280858 24.1746942,18.5099905 L4.10429661,6.94245643 C3.81583425,6.77596138 3.6396484,6.47007512 3.6396484,6.13708502 L3.6396484,6.13514903 C3.63772327,5.8950864 3.8952098,5.74601525 4.10236062,5.86604657 Z" id="Path" fill="#EEFBFF"></path>
                            <path d="M4.10236062,8.74099018 L24.1746942,20.3104602 C24.4631566,20.4769553 24.6393316,20.7828415 24.6393316,21.1158316 L24.6393316,21.1158316 C24.6393316,21.3539583 24.381845,21.5030294 24.1746942,21.3849341 L4.10429661,9.81740005 C3.81583425,9.65090499 3.6396484,9.34501874 3.6396484,9.01202864 L3.6396484,9.01009265 C3.63772327,8.771966 3.8952098,8.62289485 4.10236062,8.74099018 Z" id="Path" fill="#E9FBFF"></path>
                            <path d="M4.10236062,11.6178698 L24.1746942,23.1873398 C24.4631566,23.3538349 24.6393316,23.6597211 24.6393316,23.9927113 L24.6393316,23.9927113 C24.6393316,24.2308379 24.381845,24.379909 24.1746942,24.2618137 L4.10429661,12.6942796 C3.81583425,12.5277846 3.6396484,12.2218983 3.6396484,11.8889082 L3.6396484,11.8869722 C3.63772327,11.6469096 3.8952098,11.4978385 4.10236062,11.6178698 Z" id="Path" fill="#D9F8FF"></path>
                            <path d="M4.10236062,14.4928134 L24.1746942,26.0622835 C24.4631566,26.2287785 24.6393316,26.5346648 24.6393316,26.8676549 L24.6393316,26.8676549 C24.6393316,27.1057815 24.381845,27.2548527 24.1746942,27.1367573 L4.10429661,15.5692233 C3.81583425,15.4027282 3.6396484,15.096842 3.6396484,14.7638519 L3.6396484,14.7619159 C3.63772327,14.5218532 3.8952098,14.3727821 4.10236062,14.4928134 Z" id="Path" fill="#CAF5FF"></path>
                        </g>
                    </g>
                </g>
                <g id="Group" transform="translate(63.000000, 41.500000) scale(-1, 1) translate(-63.000000, -41.500000) translate(40.000000, 9.000000)" fill-rule="nonzero">
                    <g transform="translate(0.657354, 0.000000)" id="Path">
                        <polygon fill="#00CEEE" points="7.44800002 8.05600002 0.152 12.236 0.152 12.236 0.152 12.236 0.152 41.3440001 0.152 41.3440001 39.3680001 63.9160002 43.8520001 61.2560001 43.8520001 32.2240001"></polygon>
                        <polygon fill="#56CFFF" points="0.152 12.236 7.44800002 8.05600002 43.8520001 32.2240001 39.3680001 34.8840001"></polygon>
                        <polygon fill="url(#linearGradient-2)" points="24.3200001 2.12800001 7.44800002 8.05600002 0.152 12.236 0.152 12.236 18.24 43.2440001 39.3680001 34.8840001 43.8520001 32.2240001"></polygon>
                        <g transform="translate(4.597965, 1.839186)">
                            <polygon fill="#BDEBFF" points="0.0760000002 7.75200002 2.81200001 6.23200001 19.76 0.228000001 19.76 0.228000001"></polygon>
                            <polygon fill="url(#linearGradient-3)" points="19.76 0.228000001 39.2920001 30.4000001 0.0760000002 7.75200002"></polygon>
                        </g>
                        <g transform="translate(5.517557, 0.000000)">
                            <polygon fill="#C1F2F7" points="1.14 0.152 0.304000001 0.608000001 0.304000001 43.8520001 28.1960001 59.8880001 28.8040001 57.9880001 29.0320001 16.264"></polygon>
                            <polygon fill="#D5F1F9" points="28.1960001 16.72 29.0320001 16.264 29.1840001 57.9880001 28.1960001 59.8880001"></polygon>
                        </g>
                        <polygon fill="#E6FAFF" points="5.85200001 0.608000001 6.68800002 0.152 34.5800001 16.264 33.7440001 16.72"></polygon>
                        <polygon fill="#FFFFFF" points="33.7440001 16.72 33.7440001 59.8880001 5.85200001 43.8520001 5.85200001 0.608000001"></polygon>
                        <g transform="translate(10.115523, 11.035116)" fill="#CCE3F1">
                            <path d="M18.848,24.9280001 L18.848,24.9280001 C18.848,25.3080001 18.468,25.4600001 18.164,25.3080001 L1.216,15.504 C0.684000002,15.2 0.380000001,14.668 0.380000001,14.06 L0.380000001,14.06 C0.380000001,13.68 0.760000002,13.528 1.064,13.68 L18.088,23.4840001 C18.544,23.7880001 18.848,24.3200001 18.848,24.9280001 Z"></path>
                            <path d="M18.924,20.444 L18.924,20.444 C18.924,20.824 18.544,20.976 18.24,20.824 L1.292,11.02 C0.760000002,10.716 0.456000001,10.184 0.456000001,9.57600002 L0.456000001,9.57600002 C0.456000001,9.19600002 0.836000002,9.04400002 1.14,9.19600002 L18.088,19 C18.544,19.304 18.924,19.836 18.924,20.444 Z"></path>
                            <path d="M18.924,15.96 L18.924,15.96 C18.924,16.34 18.544,16.492 18.24,16.34 L1.292,6.53600002 C0.760000002,6.23200001 0.456000001,5.70000001 0.456000001,5.09200001 L0.456000001,5.09200001 C0.456000001,4.71200001 0.836000002,4.56000001 1.14,4.71200001 L18.088,14.592 C18.62,14.82 18.924,15.428 18.924,15.96 Z"></path>
                            <path d="M18.924,11.552 L18.924,11.552 C18.924,11.932 18.544,12.084 18.24,11.932 L1.292,2.12800001 C0.760000002,1.824 0.456000001,1.292 0.456000001,0.684000002 L0.456000001,0.684000002 C0.456000001,0.304000001 0.836000002,0.152 1.14,0.304000001 L18.088,10.108 C18.62,10.412 18.924,10.944 18.924,11.552 Z"></path>
                        </g>
                        <polygon fill="url(#linearGradient-4)" points="0.152 12.236 0.152 41.3440001 39.3680001 63.9160002 39.3680001 34.8840001 18.24 43.2440001"></polygon>
                        <g transform="translate(0.000000, 31.725958)">
                            <polygon fill="url(#linearGradient-5)" points="13.984 4.25600001 23.2560001 9.57600002 39.3680001 32.2240001 0.152 9.57600002"></polygon>
                            <polygon fill="url(#linearGradient-6)" points="39.3680001 3.11600001 43.8520001 0.532000001 43.8520001 29.5640001 39.3680001 32.2240001"></polygon>
                        </g>
                    </g>
                </g>
            </g>
        </g>
    </g>
</svg>