<?xml version="1.0" encoding="UTF-8"?>
<svg width="135px" height="49px" viewBox="0 0 135 49" version="1.1" xmlns="http://www.w3.org/2000/svg" xmlns:xlink="http://www.w3.org/1999/xlink">
    <title>Group</title>
    <g id="Page-1" stroke="none" stroke-width="1" fill="none" fill-rule="evenodd">
        <g id="Главная-десктоп" transform="translate(-83.000000, -17.000000)">
            <g id="Group-27" transform="translate(33.000000, 17.000000)">
                <g id="Group" transform="translate(50.000000, 0.000000)">
                    <polygon id="Fill-1" fill="#0077B2" points="2.8464065e-15 48.3299166 48.3299166 48.3299166 48.3299166 -2.8464065e-15 2.8464065e-15 -2.8464065e-15"></polygon>
                    <path d="M27.8675479,34.7359283 L25.6760869,40.7781193 L41.5390917,40.7781193 L43.7311535,34.7359283 L27.8675479,34.7359283 Z M22.6555923,40.7803226 L34.736369,7.55067568 L16.6126001,7.55067568 L4.53102232,40.7785199 L22.6555923,40.7803226 Z" id="Fill-2" fill="#FFFFFE"></path>
                    <g id="Group-29" transform="translate(55.682858, 7.369566)" fill="#0077B2">
                        <path d="M10.871357,6.44068397 C10.871357,8.32008058 10.3511829,9.83032788 9.31063456,10.9716262 C8.27028648,12.1127242 6.94471398,12.683173 5.33371676,12.683173 C3.91280239,12.683173 2.75187489,12.2947951 1.85153515,11.5170378 C0.950794817,10.7394807 0.399975177,9.65166202 0.198475338,8.25318103 L1.79284782,8.25318103 C1.97151368,9.24886264 2.35748803,10.0095946 2.95057055,10.535377 C3.54365308,11.0613597 4.31540147,11.3239504 5.26661691,11.3239504 C6.40771491,11.3239504 7.34450889,10.9183469 8.07739946,10.1073401 C8.80988943,9.29633328 9.21008494,8.19148923 9.27718478,6.79300824 L3.47094489,6.79300824 L3.47094489,5.46723544 L9.21008494,5.46723544 C9.06446825,4.31512105 8.66747752,3.37251843 8.01851183,2.63962786 C7.36954615,1.90713789 6.46359806,1.54059246 5.30006669,1.54059246 C4.42756838,1.54059246 3.686065,1.75310869 3.07635773,2.17814115 C2.46665046,2.60357421 2.06685555,3.18503945 1.8767727,3.92353837 L0.282400222,3.92353837 C0.37193345,3.14037299 0.67097844,2.45815783 1.18013608,1.87629199 C1.68929373,1.29462645 2.2988007,0.866789814 3.00945818,0.592381485 C3.71971507,0.31857405 4.47203455,0.181169587 5.26661691,0.181169587 C7.06749669,0.181169587 8.45195681,0.771447942 9.41979699,1.95160406 C10.3874369,3.13216077 10.871357,4.62818691 10.871357,6.44068397" id="Fill-3"></path>
                        <polygon id="Fill-5" points="21.8962624 12.3979886 20.1510655 12.3979886 16.7107462 1.99370671 13.2371774 12.3979886 11.5759054 12.3979886 15.8382479 0.45000963 17.6507449 0.45000963"></polygon>
                        <polygon id="Fill-7" points="31.772078 0.449949541 31.772078 1.82579685 25.0761142 1.82579685 25.0761142 5.56816563 31.3356285 5.56816563 31.3356285 6.89353783 25.0761142 6.89353783 25.0761142 11.0220813 31.8560029 11.0220813 31.8560029 12.3979286 23.498767 12.3979286 23.498767 0.449949541"></polygon>
                        <polygon id="Fill-9" points="33.4585675 0.449949541 35.6402139 0.449949541 39.482932 10.5688068 43.1916507 0.449949541 45.3897215 0.449949541 45.3897215 12.3979286 43.8962993 12.3979286 43.8962993 2.42989577 40.1543311 12.3979286 38.7782835 12.3979286 34.9688148 2.42989577 34.9688148 12.3979286 33.4585675 12.3979286"></polygon>
                        <polygon id="Fill-11" points="56.3309024 0.449949541 56.3309024 1.82579685 49.6355395 1.82579685 49.6355395 5.56816563 55.8946532 5.56816563 55.8946532 6.89353783 49.6355395 6.89353783 49.6355395 11.0220813 56.4148273 11.0220813 56.4148273 12.3979286 48.057992 12.3979286 48.057992 0.449949541"></polygon>
                        <polygon id="Fill-13" points="67.7758529 0.449949541 67.7758529 12.3979286 66.1985057 12.3979286 66.1985057 6.80961295 59.8887165 6.80961295 59.8887165 12.3979286 58.3111691 12.3979286 58.3111691 0.449949541 59.8887165 0.449949541 59.8887165 5.43376564 66.1985057 5.43376564 66.1985057 0.449949541"></polygon>
                        <polygon id="Fill-15" points="78.7171339 0.449949541 78.7171339 1.82579685 74.7063657 1.82579685 74.7063657 12.3979286 73.1290186 12.3979286 73.1290186 1.82579685 69.1180501 1.82579685 69.1180501 0.449949541"></polygon>
                        <polygon id="Fill-17" points="10.435248 33.3111482 8.68985081 33.3111482 5.24973179 22.9068662 1.7759627 33.3111482 0.114690664 33.3111482 4.37703318 21.3631692 6.18953024 21.3631692"></polygon>
                        <polygon id="Fill-19" points="12.1040513 33.3111482 12.1040513 21.3631692 13.6813984 21.3631692 13.6813984 31.4820264 13.7148482 31.4820264 19.5717635 21.3631692 21.5683345 21.3631692 21.5683345 33.3111482 19.9911876 33.3111482 19.9911876 23.1584406 19.9575375 23.1584406 14.0841978 33.3111482"></polygon>
                        <path d="M32.9423794,29.8205941 C32.9423794,30.2125774 32.8526459,30.6175801 32.6737798,31.0372045 C32.4947133,31.4568289 32.231722,31.8624324 31.885006,32.2538148 C31.5382901,32.6457981 31.0515658,32.9644723 30.4252338,33.2106386 C29.7985012,33.4564043 29.088044,33.5797879 28.2938623,33.5797879 C26.7946314,33.5797879 25.5946457,33.2246595 24.694306,32.514002 C23.7935657,31.8037451 23.343496,30.7549845 23.343496,29.3675199 L24.870368,29.3675199 C24.9040181,30.3856349 25.2453259,31.126938 25.8942916,31.5912289 C26.5428567,32.0555198 27.3877139,32.2874649 28.4282623,32.2874649 C29.2671105,32.2874649 29.966351,32.0585242 30.5259838,31.5996414 C31.0852159,31.1407586 31.364832,30.5366596 31.364832,29.7871443 C31.364832,29.3735289 31.2865155,29.0210043 31.1298824,28.7299712 C30.9732493,28.4391385 30.743908,28.2212142 30.4420589,28.0755975 C30.1400094,27.9301811 29.8237388,27.8296315 29.4936476,27.7733477 C29.1637567,27.7176649 28.7805865,27.6894229 28.3443374,27.6894229 C27.9637711,27.6894229 27.6056382,27.7006395 27.2703392,27.7228726 L27.2703392,26.4141252 C27.4490051,26.4367588 27.807138,26.4475749 28.3443374,26.4475749 C30.0781173,26.4475749 30.9452076,25.73191 30.9452076,24.2999792 C30.9452076,23.0240807 30.0895343,22.3867323 28.3777872,22.3867323 C26.5654904,22.3867323 25.5754171,23.1979394 25.4075674,24.819953 L23.880495,24.819953 C23.9249612,23.5893218 24.3612104,22.6581361 25.1894428,22.0257952 C26.0172746,21.3940551 27.0964805,21.0777845 28.4282623,21.0777845 C29.6474765,21.0777845 30.6349459,21.3459836 31.3900695,21.883183 C32.1453935,22.420182 32.522755,23.2257808 32.522755,24.2999792 C32.522755,24.9038779 32.3268635,25.4492895 31.9354811,25.9360137 C31.5436981,26.4223374 31.0796076,26.7444166 30.5426085,26.9010497 L30.5426085,26.9511242 C31.3031402,27.0965406 31.8936188,27.4378485 32.313043,27.9746473 C32.7326674,28.5118466 32.9423794,29.126962 32.9423794,29.8205941" id="Fill-21"></path>
                        <polygon id="Fill-23" points="34.7172806 33.3111482 34.7172806 21.3631692 36.2946277 21.3631692 36.2946277 31.4820264 36.3282778 31.4820264 42.1849928 21.3631692 44.181764 21.3631692 44.181764 33.3111482 42.6044169 33.3111482 42.6044169 23.1584406 42.5709671 23.1584406 36.6976274 33.3111482"></polygon>
                        <polygon id="Fill-25" points="56.4148072 21.363089 56.4148072 33.3110681 54.8370595 33.3110681 54.8370595 27.7229527 48.5272703 27.7229527 48.5272703 33.3110681 46.9499232 33.3110681 46.9499232 21.363089 48.5272703 21.363089 48.5272703 26.3471054 54.8370595 26.3471054 54.8370595 21.363089"></polygon>
                        <polygon id="Fill-27" points="60.5263854 33.3111482 58.948838 33.3111482 58.948838 21.3631692 66.8021239 21.3631692 66.8021239 22.7390165 60.5263854 22.7390165"></polygon>
                    </g>
                </g>
            </g>
        </g>
    </g>
</svg>