<svg width="26" height="25" viewBox="0 0 26 25" fill="none" xmlns="http://www.w3.org/2000/svg">
<g id="Group 19">
<g id="Group 3">
<mask id="mask0" mask-type="alpha" maskUnits="userSpaceOnUse" x="0" y="7" width="22" height="12">
<path id="Clip 2" fill-rule="evenodd" clip-rule="evenodd" d="M0 7.79749H21.2181V18.3479H0V7.79749Z" fill="white"/>
</mask>
<g mask="url(#mask0)">
<path id="Fill 1" fill-rule="evenodd" clip-rule="evenodd" d="M20.8673 7.79749H20.8665H0.351628C0.157675 7.79735 0.000279163 7.95432 9.29512e-08 8.14828V8.14911V17.9962C-0.000139442 18.1902 0.156837 18.3476 0.350791 18.3479H0.351628H15.866C16.219 18.0378 16.004 17.6446 15.697 17.6446H0.703256V8.50074H20.5148V10.8479H21.2181V9.37995V8.14911C21.2184 7.95516 21.0613 7.79776 20.8673 7.79749Z" fill="white"/>
</g>
</g>
<path id="Fill 4" fill-rule="evenodd" clip-rule="evenodd" d="M18.4818 6.16492L2.07002 2.47227C1.9789 2.4519 1.88346 2.46836 1.80448 2.51818C1.72564 2.56841 1.66997 2.64781 1.64932 2.73892L0.828714 6.43171C0.786714 6.62134 0.906295 6.80915 1.09578 6.85129C1.28555 6.89357 1.47336 6.77385 1.51564 6.58422L2.2595 3.23581L18.3275 6.85101C18.3529 6.85687 18.379 6.85981 18.4049 6.85967C18.5992 6.85925 18.7564 6.70157 18.756 6.50734C18.7557 6.34311 18.6419 6.20106 18.4818 6.16492Z" fill="white"/>
<path id="Fill 6" fill-rule="evenodd" clip-rule="evenodd" d="M16.489 4.13024L6.64191 0.0272125C6.4707 -0.0440898 6.27354 0.029166 6.19051 0.195073L5.36991 1.83628C5.27726 2.00763 5.34103 2.22182 5.51265 2.31447C5.68386 2.40712 5.89819 2.34335 5.99084 2.17186C5.99447 2.16517 5.99782 2.15833 6.00103 2.15135V2.15219L6.67428 0.804701L16.2175 4.78089C16.3972 4.85596 16.6036 4.77112 16.6785 4.5914C16.7536 4.41182 16.6687 4.20531 16.489 4.13024Z" fill="white"/>
<path id="Fill 8" fill-rule="evenodd" clip-rule="evenodd" d="M16.7377 9.4386H13.4811C13.287 9.4386 13.1296 9.59599 13.1296 9.79023C13.1296 9.98446 13.287 10.1419 13.4811 10.1419H16.7377C16.932 10.1419 17.0894 9.98446 17.0894 9.79023C17.0894 9.59599 16.932 9.4386 16.7377 9.4386Z" fill="#33BBFF"/>
<g id="Group 12">
<mask id="mask1" mask-type="alpha" maskUnits="userSpaceOnUse" x="15" y="10" width="10" height="14">
<path id="Clip 11" fill-rule="evenodd" clip-rule="evenodd" d="M15.5325 10.6107H24.5591V23.7403H15.5325V10.6107Z" fill="white"/>
</mask>
<g mask="url(#mask1)">
<path id="Fill 10" fill-rule="evenodd" clip-rule="evenodd" d="M20.0459 13.0725C17.6492 13.0725 16.4192 12.4752 16.3531 12.2593V12.257C16.4192 12.0284 17.6492 11.4313 20.0459 11.4313C22.4256 11.4313 23.6565 12.0197 23.7385 12.2519C23.6565 12.4843 22.4256 13.0725 20.0459 13.0725ZM23.7385 13.887C23.6766 14.1147 22.446 14.7137 20.0459 14.7137C17.6456 14.7137 16.415 14.1147 16.3531 13.8931V13.2482C17.2263 13.6859 18.6685 13.8931 20.0459 13.8931C21.4232 13.8931 22.8657 13.6859 23.7385 13.2478V13.887ZM23.7385 15.5282C23.6766 15.7559 22.446 16.355 20.0459 16.355C17.6456 16.355 16.415 15.7559 16.3531 15.5343V14.8894C17.2263 15.3271 18.6685 15.5343 20.0459 15.5343C21.4232 15.5343 22.8657 15.3271 23.7385 14.889V15.5282ZM23.7385 17.1694C23.6766 17.3971 22.446 17.9962 20.0459 17.9962C17.6456 17.9962 16.415 17.3971 16.3531 17.1756V16.5305C17.2263 16.9704 18.6685 17.1756 20.0459 17.1756C21.4232 17.1756 22.8657 16.9683 23.7385 16.5301V17.1694ZM23.7385 18.8106C23.6766 19.0382 22.446 19.6372 20.0459 19.6372C17.6456 19.6372 16.415 19.0382 16.3531 18.8168V18.1717C17.2263 18.6115 18.6685 18.8168 20.0459 18.8168C21.4232 18.8168 22.8657 18.6096 23.7385 18.1713V18.8106ZM23.7385 20.4517C23.6766 20.6794 22.446 21.2784 20.0459 21.2784C17.6456 21.2784 16.415 20.6794 16.3531 20.4578V19.8129C17.2263 20.2527 18.6685 20.4578 20.0459 20.4578C21.4232 20.4578 22.8657 20.2506 23.7385 19.8125V20.4517ZM23.7385 22.0929C23.6766 22.3206 22.446 22.9196 20.0459 22.9196C17.6456 22.9196 16.415 22.3206 16.3531 22.099V21.4541C17.2263 21.8939 18.6685 22.099 20.0459 22.099C21.4232 22.099 22.8657 21.8918 23.7385 21.4537V22.0929ZM20.0459 10.6107C17.8712 10.6107 15.5325 11.1245 15.5325 12.2519V22.099C15.5325 23.2266 17.8712 23.7403 20.0459 23.7403C22.2204 23.7403 24.5591 23.2266 24.5591 22.099V12.2519C24.5591 11.1245 22.2204 10.6107 20.0459 10.6107Z" fill="white"/>
</g>
</g>
<path id="Fill 13" fill-rule="evenodd" clip-rule="evenodd" d="M9.82243 14.3493V15.0963H9.2421V14.3493H8.77466V13.8873H9.2421V13.5004H8.77466V13.0007H9.2421V11.1204H10.2038C11.1548 11.1204 11.6061 11.5985 11.6061 12.3184C11.6061 13.044 11.1548 13.5004 10.2038 13.5004H9.82243V13.8873H10.8378V14.3493H9.82243ZM9.82243 13.0007H10.2038C10.8648 13.0007 11.0258 12.6247 11.0258 12.3078C11.0258 11.9908 10.8648 11.6523 10.2038 11.6523H9.82243V13.0007Z" fill="#33BBFF"/>
<path id="Stroke 15" fill-rule="evenodd" clip-rule="evenodd" d="M13.6133 13.1084C13.6133 14.9988 12.0808 16.5313 10.1906 16.5313C8.29995 16.5313 6.76758 14.9988 6.76758 13.1084C6.76758 11.2179 8.29995 9.68542 10.1906 9.68542C12.0808 9.68542 13.6133 11.2179 13.6133 13.1084Z" stroke="white" stroke-width="0.5" stroke-linecap="round"/>
<path id="Stroke 17" d="M5.3275 9.68542L4.93708 10.1144C3.43597 11.7638 3.3969 14.2724 4.84597 15.9677L5.3275 16.5313" stroke="#33BBFF" stroke-width="1.65591" stroke-linecap="round"/>
</g>
</svg>
