<?xml version="1.0" encoding="UTF-8"?>
<svg width="497px" height="783px" viewBox="0 0 497 783" version="1.1" xmlns="http://www.w3.org/2000/svg" xmlns:xlink="http://www.w3.org/1999/xlink">
    <title>Иллюстрация документы обновленная</title>
    <defs>
        <linearGradient x1="0%" y1="50%" x2="100%" y2="50%" id="linearGradient-1">
            <stop stop-color="#66BCE8" offset="0%"></stop>
            <stop stop-color="#99D3EF" offset="100%"></stop>
        </linearGradient>
        <linearGradient x1="1141.81004%" y1="49.9878788%" x2="399.748035%" y2="49.9878788%" id="linearGradient-2">
            <stop stop-color="#66BCE8" offset="0%"></stop>
            <stop stop-color="#99D3EF" offset="100%"></stop>
        </linearGradient>
        <linearGradient x1="-425.80885%" y1="50.0227766%" x2="785.084956%" y2="50.0227766%" id="linearGradient-3">
            <stop stop-color="#66BCE8" offset="21.44%"></stop>
            <stop stop-color="#74C2EA" offset="48.96%"></stop>
            <stop stop-color="#84CAEC" offset="63.99%"></stop>
            <stop stop-color="#94D1EE" offset="83.95%"></stop>
            <stop stop-color="#99D3EF" offset="100%"></stop>
        </linearGradient>
        <linearGradient x1="49.9951327%" y1="-636.934601%" x2="49.9951327%" y2="498.804943%" id="linearGradient-4">
            <stop stop-color="#66BCE8" offset="0%"></stop>
            <stop stop-color="#99D3EF" offset="71.75%"></stop>
        </linearGradient>
        <linearGradient x1="946.513158%" y1="50.0054714%" x2="201.196491%" y2="50.0054714%" id="linearGradient-5">
            <stop stop-color="#66BCE8" offset="0%"></stop>
            <stop stop-color="#99D3EF" offset="100%"></stop>
        </linearGradient>
        <linearGradient x1="-624.680176%" y1="49.9904641%" x2="525.138767%" y2="49.9904641%" id="linearGradient-6">
            <stop stop-color="#66BCE8" offset="21.44%"></stop>
            <stop stop-color="#74C2EA" offset="48.96%"></stop>
            <stop stop-color="#84CAEC" offset="63.99%"></stop>
            <stop stop-color="#94D1EE" offset="83.95%"></stop>
            <stop stop-color="#99D3EF" offset="100%"></stop>
        </linearGradient>
        <linearGradient x1="49.9426049%" y1="-434.694697%" x2="49.9426049%" y2="696.742803%" id="linearGradient-7">
            <stop stop-color="#66BCE8" offset="0%"></stop>
            <stop stop-color="#99D3EF" offset="71.75%"></stop>
        </linearGradient>
        <linearGradient x1="743.386463%" y1="50.0159021%" x2="1.32445415%" y2="50.0159021%" id="linearGradient-8">
            <stop stop-color="#66BCE8" offset="0%"></stop>
            <stop stop-color="#99D3EF" offset="100%"></stop>
        </linearGradient>
        <linearGradient x1="-658.251327%" y1="50.0153139%" x2="496.654867%" y2="50.0153139%" id="linearGradient-9">
            <stop stop-color="#66BCE8" offset="21.44%"></stop>
            <stop stop-color="#74C2EA" offset="48.96%"></stop>
            <stop stop-color="#84CAEC" offset="63.99%"></stop>
            <stop stop-color="#94D1EE" offset="83.95%"></stop>
            <stop stop-color="#99D3EF" offset="100%"></stop>
        </linearGradient>
        <linearGradient x1="49.9256071%" y1="-284.335985%" x2="49.9256071%" y2="847.101515%" id="linearGradient-10">
            <stop stop-color="#66BCE8" offset="0%"></stop>
            <stop stop-color="#99D3EF" offset="71.75%"></stop>
        </linearGradient>
        <linearGradient x1="13.3482821%" y1="49.9992049%" x2="44.620837%" y2="49.9992049%" id="linearGradient-11">
            <stop stop-color="#66BCE8" offset="21.44%"></stop>
            <stop stop-color="#74C2EA" offset="48.96%"></stop>
            <stop stop-color="#84CAEC" offset="63.99%"></stop>
            <stop stop-color="#94D1EE" offset="83.95%"></stop>
            <stop stop-color="#99D3EF" offset="100%"></stop>
        </linearGradient>
        <linearGradient x1="13.2423681%" y1="49.9977165%" x2="44.5249239%" y2="49.9977165%" id="linearGradient-12">
            <stop stop-color="#66BCE8" offset="21.44%"></stop>
            <stop stop-color="#74C2EA" offset="48.96%"></stop>
            <stop stop-color="#84CAEC" offset="63.99%"></stop>
            <stop stop-color="#94D1EE" offset="83.95%"></stop>
            <stop stop-color="#99D3EF" offset="100%"></stop>
        </linearGradient>
        <linearGradient x1="13.3361869%" y1="49.9974462%" x2="44.5982874%" y2="49.9974462%" id="linearGradient-13">
            <stop stop-color="#66BCE8" offset="21.44%"></stop>
            <stop stop-color="#74C2EA" offset="48.96%"></stop>
            <stop stop-color="#84CAEC" offset="63.99%"></stop>
            <stop stop-color="#94D1EE" offset="83.95%"></stop>
            <stop stop-color="#99D3EF" offset="100%"></stop>
        </linearGradient>
        <linearGradient x1="52.5401093%" y1="50.0036875%" x2="93.9468318%" y2="50.0036875%" id="linearGradient-14">
            <stop stop-color="#66BCE8" offset="21.44%"></stop>
            <stop stop-color="#74C2EA" offset="48.96%"></stop>
            <stop stop-color="#84CAEC" offset="63.99%"></stop>
            <stop stop-color="#94D1EE" offset="83.95%"></stop>
            <stop stop-color="#99D3EF" offset="100%"></stop>
        </linearGradient>
        <linearGradient x1="13.4774822%" y1="49.9999401%" x2="44.7132424%" y2="49.9999401%" id="linearGradient-15">
            <stop stop-color="#66BCE8" offset="21.44%"></stop>
            <stop stop-color="#74C2EA" offset="48.96%"></stop>
            <stop stop-color="#84CAEC" offset="63.99%"></stop>
            <stop stop-color="#94D1EE" offset="83.95%"></stop>
            <stop stop-color="#99D3EF" offset="100%"></stop>
        </linearGradient>
        <linearGradient x1="-0.000333209648%" y1="49.9962143%" x2="100.004822%" y2="49.9962143%" id="linearGradient-16">
            <stop stop-color="#66BCE8" offset="21.44%"></stop>
            <stop stop-color="#74C2EA" offset="48.96%"></stop>
            <stop stop-color="#84CAEC" offset="63.99%"></stop>
            <stop stop-color="#94D1EE" offset="83.95%"></stop>
            <stop stop-color="#99D3EF" offset="100%"></stop>
        </linearGradient>
        <linearGradient x1="-0.000543970315%" y1="50.0046167%" x2="100.004611%" y2="50.0046167%" id="linearGradient-17">
            <stop stop-color="#66BCE8" offset="21.44%"></stop>
            <stop stop-color="#74C2EA" offset="48.96%"></stop>
            <stop stop-color="#84CAEC" offset="63.99%"></stop>
            <stop stop-color="#94D1EE" offset="83.95%"></stop>
            <stop stop-color="#99D3EF" offset="100%"></stop>
        </linearGradient>
        <linearGradient x1="-0.0053825603%" y1="50.0013997%" x2="99.9997722%" y2="50.0013997%" id="linearGradient-18">
            <stop stop-color="#66BCE8" offset="21.44%"></stop>
            <stop stop-color="#74C2EA" offset="48.96%"></stop>
            <stop stop-color="#84CAEC" offset="63.99%"></stop>
            <stop stop-color="#94D1EE" offset="83.95%"></stop>
            <stop stop-color="#99D3EF" offset="100%"></stop>
        </linearGradient>
        <linearGradient x1="-0.00436289425%" y1="49.997811%" x2="99.9974924%" y2="49.997811%" id="linearGradient-19">
            <stop stop-color="#66BCE8" offset="21.44%"></stop>
            <stop stop-color="#74C2EA" offset="48.96%"></stop>
            <stop stop-color="#84CAEC" offset="63.99%"></stop>
            <stop stop-color="#94D1EE" offset="83.95%"></stop>
            <stop stop-color="#99D3EF" offset="100%"></stop>
        </linearGradient>
        <linearGradient x1="0.00345879397%" y1="50.0015723%" x2="100.000339%" y2="50.0015723%" id="linearGradient-20">
            <stop stop-color="#FFFFFF" offset="0%"></stop>
            <stop stop-color="#FDFFFF" offset="66.89%"></stop>
            <stop stop-color="#F6FFFF" offset="100%"></stop>
        </linearGradient>
        <linearGradient x1="56.1919506%" y1="56.2451881%" x2="26.3876904%" y2="33.1164168%" id="linearGradient-21">
            <stop stop-color="#99D3EF" offset="30.31%"></stop>
            <stop stop-color="#6CB4D8" offset="100%"></stop>
        </linearGradient>
        <linearGradient x1="51.8627191%" y1="50.3854227%" x2="-44.6567007%" y2="30.1462585%" id="linearGradient-22">
            <stop stop-color="#FFFFFF" offset="0%"></stop>
            <stop stop-color="#FBFFFF" stop-opacity="0.9353" offset="12.94%"></stop>
            <stop stop-color="#EFFFFF" stop-opacity="0.8706" offset="25.87%"></stop>
            <stop stop-color="#DBFFFF" stop-opacity="0.8059" offset="38.82%"></stop>
            <stop stop-color="#BFF1FF" stop-opacity="0.7411" offset="51.79%"></stop>
            <stop stop-color="#9AE9FF" stop-opacity="0.6762" offset="64.77%"></stop>
            <stop stop-color="#6ED6FF" stop-opacity="0.6111" offset="77.77%"></stop>
            <stop stop-color="#3ADBFF" stop-opacity="0.5473" offset="90.53%"></stop>
            <stop stop-color="#0FFFFF" stop-opacity="0.5" offset="100%"></stop>
        </linearGradient>
        <linearGradient x1="64.0435952%" y1="45.2470473%" x2="37.7972886%" y2="54.5706196%" id="linearGradient-23">
            <stop stop-color="#FFFFFF" offset="0%"></stop>
            <stop stop-color="#FDFFFF" offset="66.89%"></stop>
            <stop stop-color="#F6FFFF" offset="100%"></stop>
        </linearGradient>
        <linearGradient x1="-0.00126604824%" y1="49.9962321%" x2="100.003889%" y2="49.9962321%" id="linearGradient-24">
            <stop stop-color="#66BCE8" offset="21.44%"></stop>
            <stop stop-color="#74C2EA" offset="48.96%"></stop>
            <stop stop-color="#84CAEC" offset="63.99%"></stop>
            <stop stop-color="#94D1EE" offset="83.95%"></stop>
            <stop stop-color="#99D3EF" offset="100%"></stop>
        </linearGradient>
        <linearGradient x1="-0.00445473098%" y1="49.9978774%" x2="99.9974006%" y2="49.9978774%" id="linearGradient-25">
            <stop stop-color="#66BCE8" offset="21.44%"></stop>
            <stop stop-color="#74C2EA" offset="48.96%"></stop>
            <stop stop-color="#84CAEC" offset="63.99%"></stop>
            <stop stop-color="#94D1EE" offset="83.95%"></stop>
            <stop stop-color="#99D3EF" offset="100%"></stop>
        </linearGradient>
        <linearGradient x1="88.6973913%" y1="211.749387%" x2="41.2078261%" y2="11.9594163%" id="linearGradient-26">
            <stop stop-color="#99D3EF" offset="30.31%"></stop>
            <stop stop-color="#6CB4D8" offset="100%"></stop>
        </linearGradient>
        <linearGradient x1="50.0069767%" y1="-259.99194%" x2="50.0069767%" y2="187.669018%" id="linearGradient-27">
            <stop stop-color="#E6F5FF" offset="0%"></stop>
            <stop stop-color="#E0F2FE" offset="9.955081%"></stop>
            <stop stop-color="#D0EBFA" offset="22.96%"></stop>
            <stop stop-color="#B5DFF5" offset="37.6%"></stop>
            <stop stop-color="#99D3EF" offset="49.78%"></stop>
        </linearGradient>
        <linearGradient x1="24.9952024%" y1="-75.7477941%" x2="79.9943971%" y2="200.71%" id="linearGradient-28">
            <stop stop-color="#99D3EF" offset="30.31%"></stop>
            <stop stop-color="#6CB4D8" offset="100%"></stop>
        </linearGradient>
        <linearGradient x1="50.9746124%" y1="-77.7252569%" x2="50.2385659%" y2="23.0580314%" id="linearGradient-29">
            <stop stop-color="#E6F5FF" offset="0%"></stop>
            <stop stop-color="#E0F2FE" offset="9.955081%"></stop>
            <stop stop-color="#D0EBFA" offset="22.96%"></stop>
            <stop stop-color="#B5DFF5" offset="37.6%"></stop>
            <stop stop-color="#99D3EF" offset="49.78%"></stop>
        </linearGradient>
        <linearGradient x1="51.3633628%" y1="-116.301439%" x2="49.8962769%" y2="62.7402878%" id="linearGradient-30">
            <stop stop-color="#E6F5FF" offset="0%"></stop>
            <stop stop-color="#D4EDFB" offset="5.189627%"></stop>
            <stop stop-color="#BEE4F7" offset="13.51%"></stop>
            <stop stop-color="#ADDCF3" offset="23.35%"></stop>
            <stop stop-color="#A2D7F1" offset="35.53%"></stop>
            <stop stop-color="#9BD4EF" offset="52.6%"></stop>
            <stop stop-color="#99D3EF" offset="100%"></stop>
        </linearGradient>
        <linearGradient x1="-159.019922%" y1="49.9848451%" x2="385.014102%" y2="49.9848451%" id="linearGradient-31">
            <stop stop-color="#66BCE8" offset="0%"></stop>
            <stop stop-color="#99D3EF" offset="100%"></stop>
        </linearGradient>
        <linearGradient x1="403.044643%" y1="50.0742124%" x2="-14.0910714%" y2="50.0742124%" id="linearGradient-32">
            <stop stop-color="#99D3EF" offset="30.31%"></stop>
            <stop stop-color="#6CB4D8" offset="100%"></stop>
        </linearGradient>
        <linearGradient x1="49.3239506%" y1="4.14314928%" x2="50.6824645%" y2="95.8241309%" id="linearGradient-33">
            <stop stop-color="#66BCE8" offset="0%"></stop>
            <stop stop-color="#99D3EF" offset="100%"></stop>
        </linearGradient>
        <linearGradient x1="26.2450437%" y1="66.5507168%" x2="81.8988342%" y2="27.8363799%" id="linearGradient-34">
            <stop stop-color="#66BCE8" offset="0%"></stop>
            <stop stop-color="#74C2EA" offset="48.96%"></stop>
            <stop stop-color="#84CAEC" offset="63.99%"></stop>
            <stop stop-color="#94D1EE" offset="83.95%"></stop>
            <stop stop-color="#99D3EF" offset="100%"></stop>
        </linearGradient>
        <linearGradient x1="0.227941486%" y1="94.0661431%" x2="124.684922%" y2="-16.1361257%" id="linearGradient-35">
            <stop stop-color="#66BCE8" offset="0%"></stop>
            <stop stop-color="#74C2EA" offset="48.96%"></stop>
            <stop stop-color="#84CAEC" offset="63.99%"></stop>
            <stop stop-color="#94D1EE" offset="83.95%"></stop>
            <stop stop-color="#99D3EF" offset="100%"></stop>
        </linearGradient>
        <linearGradient x1="49.0530189%" y1="-31.2511574%" x2="49.805218%" y2="33.5263889%" id="linearGradient-36">
            <stop stop-color="#66BCE8" offset="0%"></stop>
            <stop stop-color="#99D3EF" offset="100%"></stop>
        </linearGradient>
        <linearGradient x1="77.5252049%" y1="62.8306487%" x2="51.642623%" y2="50.7379669%" id="linearGradient-37">
            <stop stop-color="#66BCE8" offset="0%"></stop>
            <stop stop-color="#99D3EF" offset="100%"></stop>
        </linearGradient>
    </defs>
    <g id="Page-1" stroke="none" stroke-width="1" fill="none" fill-rule="evenodd">
        <g id="Главная-десктоп" transform="translate(-84.000000, -1042.000000)">
            <g id="Иллюстрация-документы-обновленная" transform="translate(84.000000, 1042.000000)">
                <path d="M10.3,530.8 L10.3,613.1 L76.2,651.2 L50.3,665.9 L115.9,703.8 L174.2,670 L251.4,716" id="Path" stroke="#B3DAFF" stroke-width="0.5" stroke-linecap="round" stroke-dasharray="4.9264"></path>
                <path d="M436.5,639.6 L436.7,735.6 L409.7,752 L378.7,734.1 L295.6,782.1 L215.1,735.6 L159.7,767.6 L131.7,751.8 L131.7,664.2" id="Path" stroke="#B3DAFF" stroke-width="0.5" stroke-linecap="round" stroke-dasharray="4.1625"></path>
                <polygon id="Path" fill="#E7F3FC" fill-rule="nonzero" points="316.3 705.1 370.2 674 388.2 684.4 334.3 715.5"></polygon>
                <path d="M315.4,715 L369.3,683.9 L387.3,694.3 L333.4,725.4 L315.4,715 Z" id="Path" stroke="#D7EDFF" stroke-width="0.5" stroke-linecap="round" stroke-dasharray="2.7"></path>
                <polygon id="Path" fill="#86C3F2" fill-rule="nonzero" opacity="0.4" points="0.1 434.9 0.1 116.6 200.9 0.5 200.9 318.8"></polygon>
                <g id="Group" transform="translate(344.199991, 169.799996)">
                    <polygon id="Path" stroke="#D2F1F9" stroke-width="0.5" points="6.2 155.8 151.4 239.6 151.4 83.9 6.2 0.1"></polygon>
                    <polygon id="Path" fill="#86C3F2" fill-rule="nonzero" opacity="0.3" points="0.4 159 145.5 242.8 145.5 87.2 0.4 3.4"></polygon>
                    <polygon id="Path" fill="#EBF9FF" fill-rule="nonzero" points="145.5 87.2 0.4 159 145.5 242.8"></polygon>
                </g>
                <polygon id="Path" fill="url(#linearGradient-1)" fill-rule="nonzero" points="120 255.2 120 139.9 275.8 50 275.8 165.3"></polygon>
                <polygon id="Path" stroke="#B9F6F9" stroke-width="0.9756" points="176.6 239.2 176.6 149.2 290.7 83.4 290.7 173.4"></polygon>
                <polygon id="Path" stroke="#7CB3E5" stroke-width="0.5" fill="#FFFFFF" fill-rule="nonzero" points="139.4 230.4 139.4 143.7 256.5 76 256.5 162.8"></polygon>
                <path d="M199.4,124.7 C199.2,124.8 198.9,125 198.7,125.1 C193.9,128.3 190,135 189.7,140.7 C189.5,144.6 190.9,147.2 193.2,148.1 C194.4,148.5 194.1,150.8 192.7,152.2 C185.4,159.6 180.2,170.7 180.3,180.2 L180.3,192.1 L218.9,169.8 L218.9,157.9 C218.9,148.4 213.7,143.3 206.3,144.4 C204.9,144.6 204.6,142.6 205.8,140.9 C207.9,137.6 209.3,133.7 209.3,130.3 C209.2,124.1 204.8,121.6 199.4,124.7" id="Path" fill="#CCE9F7" fill-rule="nonzero"></path>
                <path d="M136.2,48.1 L22.7,114.2 C18.6,116.6 16.1,120.9 16.1,125.6 L16.1,315.4 C16.1,319.9 21,322.7 24.9,320.5 L138.4,255.1 C142.5,252.7 145,248.4 145,243.6 L145,53.2 C145,48.6 140.1,45.8 136.2,48.1 Z" id="Path" fill="#D3EEFD" fill-rule="nonzero" opacity="0.4"></path>
                <path d="M143.2,52 L29.7,118 C25.6,120.4 23.1,124.7 23.1,129.4 L23.1,319.2 C23.1,323.7 28,326.5 31.9,324.3 L145.4,259 C149.5,256.6 152,252.3 152,247.5 L152,57.1 C152.1,52.5 147.1,49.7 143.2,52 Z" id="Path" fill="#86C3F2" fill-rule="nonzero" opacity="0.4"></path>
                <g id="Group" transform="translate(30.099999, 54.599999)" fill-rule="nonzero">
                    <path d="M120.2,1.3 L6.7,67.3 C2.6,69.7 0.1,74 0.1,78.7 L0.1,268.5 C0.1,273 5,275.8 8.9,273.6 L122.4,208.2 C126.5,205.8 129,201.5 129,196.7 L129,6.3 C129,1.8 124.1,-1 120.2,1.3 Z" id="Path" fill="#F2FCFF"></path>
                    <path d="M6.9,67.2 L120.2,1.2 C122.8,-0.3 126,0.5 127.8,2.6 C126.6,2.3 125.5,2.4 124.2,3.1 L10.7,69.3 C6.6,71.7 4.1,76 4.1,80.7 L4.1,270.5 C4.1,272 4.4,273.3 5.3,274.3 C2.5,274 0.1,271.6 0.1,268.5 L0.1,78.8 C0.1,74.1 2.8,69.6 6.9,67.2 Z" id="Path" fill="#86C3F2" opacity="0.5"></path>
                </g>
                <path d="M129.9,98.1 L59.4,138.8 C57.3,140 56,142.3 56,144.8 L56,145.1 C56,146.7 57.7,147.7 59.1,146.9 L129.6,105.9 C131.7,104.7 133,102.4 133,99.9 L133,99.9 C133,98.3 131.3,97.3 129.9,98.1 Z" id="Path" fill="#CCE9F7" fill-rule="nonzero"></path>
                <path d="M129.9,119.9 L59.4,160.6 C57.3,161.8 56,164.1 56,166.6 L56,166.9 C56,168.5 57.7,169.5 59.1,168.7 L129.6,127.7 C131.7,126.5 133,124.2 133,121.7 L133,121.7 C133,120.1 131.3,119.1 129.9,119.9 Z" id="Path" fill="#CCE9F7" fill-rule="nonzero"></path>
                <path d="M129.9,141.6 L59.4,182.3 C57.3,183.5 56,185.8 56,188.3 L56,188.6 C56,190.2 57.7,191.2 59.1,190.4 L129.6,149.4 C131.7,148.2 133,145.9 133,143.4 L133,143.4 C133,141.8 131.3,140.8 129.9,141.6 Z" id="Path" fill="#CCE9F7" fill-rule="nonzero"></path>
                <path d="M129.9,163.4 L59.4,204.1 C57.3,205.3 56,207.6 56,210.1 L56,210.4 C56,212 57.7,213 59.1,212.2 L129.6,171.2 C131.7,170 133,167.7 133,165.2 L133,165.2 C133,163.6 131.3,162.6 129.9,163.4 Z" id="Path" fill="#CCE9F7" fill-rule="nonzero"></path>
                <path d="M128.1,216.6 L57.6,257.3 C55.5,258.5 54.2,260.8 54.2,263.3 L54.2,263.6 C54.2,265.2 55.9,266.2 57.3,265.4 L127.8,224.4 C129.9,223.2 131.2,220.9 131.2,218.4 L131.2,218.4 C131.2,216.8 129.5,215.8 128.1,216.6 Z" id="Path" fill="#CCE9F7" fill-rule="nonzero"></path>
                <path d="M217.1,325.6 L284.6,364.4 C288.6,366.7 288.6,372.4 284.6,374.7 L217.1,413.6 C212.5,416.2 206.9,416.2 202.3,413.6 L135.2,374.7 C131.2,372.4 131.2,366.7 135.2,364.4 L202.3,325.6 C206.9,323 212.5,322.9 217.1,325.6 Z" id="Path" fill="#E7F3FC" fill-rule="nonzero"></path>
                <path d="M217,266.8 L284.5,305.6 C288.5,307.9 288.5,313.6 284.5,315.9 L217,354.8 C212.4,357.4 206.8,357.4 202.2,354.8 L135.1,315.9 C131.1,313.6 131.1,307.9 135.1,305.6 L202.2,266.8 C206.8,264.2 212.4,264.2 217,266.8 Z" id="Path" fill="#B0E1F9" fill-rule="nonzero"></path>
                <g id="Group_2_" transform="translate(17.544866, 377.878816)" fill-rule="nonzero">
                    <g id="Group" transform="translate(0.000000, 92.148936)">
                        <polygon id="Path" fill="url(#linearGradient-2)" points="22.8 106.2 45.7 93 45.4 13.8 22.8 27.1"></polygon>
                        <polygon id="Path" fill="url(#linearGradient-3)" points="0.2 93 22.8 106.2 22.8 27.1 0.2 14"></polygon>
                        <polygon id="Path" fill="url(#linearGradient-4)" points="22.8 0.8 45.4 13.8 22.8 27.1 0.2 14"></polygon>
                    </g>
                    <g id="Group" transform="translate(44.969473, 39.894542)">
                        <polygon id="Path" fill="url(#linearGradient-5)" points="23.5 132.1 46.3 119 46.1 13.3 23.5 26.7"></polygon>
                        <polygon id="Path" fill="url(#linearGradient-6)" points="0.8 119 23.5 132.1 23.5 26.7 0.8 13.6"></polygon>
                        <polygon id="Path" fill="url(#linearGradient-7)" points="23.5 0.3 46.1 13.3 23.5 26.7 0.8 13.6"></polygon>
                    </g>
                    <g id="Group" transform="translate(90.938945, 0.000000)">
                        <polygon id="Path" fill="url(#linearGradient-8)" points="23.1 144.4 46 131.2 45.8 13.6 23.1 26.9"></polygon>
                        <polygon id="Path" fill="url(#linearGradient-9)" points="0.5 131.2 23.1 144.4 23.1 26.9 0.5 13.8"></polygon>
                        <polygon id="Path" fill="url(#linearGradient-10)" points="23.1 0.5 45.8 13.6 23.1 26.9 0.5 13.8"></polygon>
                    </g>
                </g>
                <path d="M284.7,312.6 L217.2,351.5 C212.6,354.1 207,354.1 202.4,351.5 L135.3,312.6 C133.9,311.8 133,310.5 132.6,309.2 C131.8,311.7 132.7,314.6 135.3,316.1 L202.4,355 C207,357.7 212.6,357.7 217.2,355 L284.7,316.1 C287.3,314.6 288.2,311.7 287.4,309.2 C287,310.5 286.1,311.7 284.7,312.6 Z" id="Path" fill="url(#linearGradient-11)" fill-rule="nonzero"></path>
                <path d="M414.7,682.6 L482.2,721.4 C486.2,723.7 486.2,729.4 482.2,731.7 L414.7,770.6 C410.1,773.2 404.5,773.2 399.9,770.6 L332.8,731.7 C328.8,729.4 328.8,723.7 332.8,721.4 L399.9,682.6 C404.5,679.9 410.2,679.9 414.7,682.6 Z" id="Path" fill="#E7F3FC" fill-rule="nonzero"></path>
                <path d="M414.6,667 L482.1,705.8 C486.1,708.1 486.1,713.8 482.1,716.1 L414.6,755 C410,757.6 404.4,757.6 399.8,755 L332.7,716.1 C328.7,713.8 328.7,708.1 332.7,705.8 L399.8,667 C404.4,664.3 410,664.3 414.6,667 Z" id="Path" fill="#C8E9F9" fill-rule="nonzero"></path>
                <path d="M482.3,712.7 L414.8,751.6 C410.2,754.2 404.6,754.2 400,751.6 L332.9,712.7 C331.5,711.9 330.6,710.6 330.2,709.3 C329.4,711.8 330.3,714.7 332.9,716.2 L400,755.1 C404.6,757.8 410.2,757.8 414.8,755.1 L482.3,716.2 C484.9,714.7 485.8,711.8 485,709.3 C484.6,710.7 483.7,711.9 482.3,712.7 Z" id="Path" fill="url(#linearGradient-12)" fill-rule="nonzero"></path>
                <path d="M356,418.5 L465.6,481.4 C472.1,485.1 472.1,494.4 465.6,498.2 L356,561.3 C348.5,565.6 339.4,565.6 331.9,561.3 L223,498.2 C216.6,494.5 216.6,485.2 223,481.5 L332,418.5 C339.4,414.2 348.5,414.2 356,418.5 Z" id="Path" fill="#E7F3FC" fill-rule="nonzero"></path>
                <path d="M355.8,372.7 L465.4,435.6 C471.9,439.3 471.9,448.6 465.4,452.4 L355.8,515.5 C348.3,519.8 339.2,519.8 331.7,515.5 L222.8,452.4 C216.4,448.7 216.4,439.4 222.8,435.7 L331.7,372.8 C339.2,368.5 348.3,368.5 355.8,372.7 Z" id="Path" fill="#C8E9F9" fill-rule="nonzero"></path>
                <path d="M465.6,447 L356,510.1 C348.5,514.4 339.4,514.4 331.9,510.1 L223,447 C220.7,445.7 219.3,443.7 218.6,441.5 C217.4,445.6 218.8,450.3 223,452.7 L331.9,515.8 C339.3,520.1 348.5,520.1 356,515.8 L465.6,452.7 C469.8,450.3 471.2,445.6 470,441.5 C469.3,443.7 467.9,445.7 465.6,447 Z" id="Path" fill="url(#linearGradient-13)" fill-rule="nonzero"></path>
                <path d="M192.4,541 L328.8,619.3 C336.9,623.9 336.9,635.5 328.8,640.2 L192.4,718.7 C183.1,724 171.7,724 162.5,718.7 L26.9,640.1 C18.9,635.5 18.9,623.9 26.9,619.3 L162.5,541 C171.8,535.7 183.2,535.7 192.4,541 Z" id="Path" fill="#E7F3FC" fill-rule="nonzero"></path>
                <path d="M192.2,503.8 L328.6,582.1 C336.7,586.7 336.7,598.3 328.6,603 L192.2,681.5 C182.9,686.8 171.5,686.8 162.3,681.5 L26.7,603 C18.7,598.4 18.7,586.8 26.7,582.2 L162.3,503.9 C171.5,498.5 182.9,498.5 192.2,503.8 Z" id="Path" fill="#C8E9F9" fill-rule="nonzero"></path>
                <path d="M297.5,712.5 L341.2,737.6 C343.8,739.1 343.8,742.8 341.2,744.3 L297.5,769.4 C294.5,771.1 290.9,771.1 287.9,769.4 L244.5,744.3 C241.9,742.8 241.9,739.1 244.5,737.6 L287.9,712.5 C290.9,710.8 294.6,710.8 297.5,712.5 Z" id="Path" fill="#E7F3FC" fill-rule="nonzero"></path>
                <path d="M328.8,596.3 L192.4,674.8 C183.1,680.1 171.7,680.1 162.5,674.8 L26.9,596.3 C24.1,594.7 22.3,592.2 21.5,589.4 C20,594.4 21.7,600.3 26.9,603.3 L162.5,681.8 C171.8,687.2 183.2,687.2 192.4,681.8 L328.8,603.3 C334,600.3 335.8,594.4 334.3,589.3 C333.4,592.1 331.6,594.7 328.8,596.3 Z" id="Path" fill="url(#linearGradient-14)" fill-rule="nonzero"></path>
                <polygon id="Path" fill="#E7F3FC" fill-rule="nonzero" points="231.4 400.1 285.3 369 303.3 379.4 249.4 410.5"></polygon>
                <path d="M297.5,699.7 L341.2,724.8 C343.8,726.3 343.8,730 341.2,731.5 L297.6,756.6 C294.6,758.3 291,758.3 288,756.6 L244.6,731.5 C242,730 242,726.3 244.6,724.8 L288,699.7 C290.9,698 294.5,698 297.5,699.7 Z" id="Path" fill="#C8E9F9" fill-rule="nonzero"></path>
                <path d="M341.2,729.3 L297.5,754.4 C294.5,756.1 290.9,756.1 287.9,754.4 L244.5,729.3 C243.6,728.8 243,728 242.8,727.1 C242.3,728.7 242.9,730.6 244.5,731.6 L287.9,756.7 C290.9,758.4 294.5,758.4 297.5,756.7 L341.2,731.6 C342.9,730.6 343.4,728.8 342.9,727.1 C342.7,728 342.1,728.8 341.2,729.3 Z" id="Path" fill="url(#linearGradient-15)" fill-rule="nonzero"></path>
                <path d="M235,403.7 L288.9,372.6 L306.9,383 L253,414.1 L235,403.7 Z" id="Path" stroke="#D7EDFF" stroke-width="0.5" stroke-linecap="round" stroke-dasharray="2.7"></path>
                <polygon id="Path" fill="#B0E1F9" fill-rule="nonzero" points="239.1 363.2 293 332 311 342.4 257.1 373.5"></polygon>
                <polygon id="Path" fill="#86C3F2" fill-rule="nonzero" points="239.1 363.2 239.1 365.5 257.1 376 257.1 373.5"></polygon>
                <polygon id="Path" fill="url(#linearGradient-16)" fill-rule="nonzero" points="311 342.4 257.1 373.5 257.1 376 311 344.9"></polygon>
                <polygon id="Path" fill="#B0E1F9" fill-rule="nonzero" points="261.4 413.1 315.3 382 333.3 392.4 279.4 423.5"></polygon>
                <path d="M265,413.1 L318.9,382 L336.9,392.4 L283,423.5 L265,413.1 Z" id="Path" stroke="#D7EDFF" stroke-width="0.5" stroke-linecap="round" stroke-dasharray="2.7"></path>
                <polygon id="Path" fill="#B0E1F9" fill-rule="nonzero" points="261.9 389.9 315.8 358.8 333.7 369.2 279.8 400.3"></polygon>
                <polygon id="Path" fill="#86C3F2" fill-rule="nonzero" points="261.9 389.9 261.9 392.3 279.8 402.8 279.8 400.3"></polygon>
                <polygon id="Path" fill="url(#linearGradient-17)" fill-rule="nonzero" points="333.7 369.2 279.8 400.3 279.8 402.8 333.7 371.6"></polygon>
                <g id="Group" transform="translate(231.699994, 296.699993)" fill-rule="nonzero">
                    <polygon id="Path" fill="#D6EDF9" points="0.8 9.2 15.9 0.5 31 9.2 15.9 17.8"></polygon>
                    <polygon id="Path" fill="#99D3EF" points="19.8 12.6 34.9 3.9 50 12.6 34.9 21.2"></polygon>
                    <polygon id="Path" fill="#5895B3" points="34.9 21.2 34.9 21.7 50 13 50 12.6"></polygon>
                    <polygon id="Path" fill="#5895B3" points="19.8 12.6 34.9 21.2 34.9 21.7 19.8 13.1"></polygon>
                    <polygon id="Path" fill="#5895B3" points="15.9 17.8 15.9 18.2 22.4 14.5 22 14.3"></polygon>
                    <polygon id="Path" fill="#5895B3" points="0.8 9.2 15.9 17.8 15.9 18.2 0.8 9.6"></polygon>
                </g>
                <polygon id="Path" fill="#E7F3FC" fill-rule="nonzero" points="299.4 527.2 245.5 496.1 227.5 506.5 281.4 537.6"></polygon>
                <path d="M303.2,527.2 L249.3,496.1 L231.3,506.5 L285.2,537.6 L303.2,527.2 Z" id="Path" stroke="#D7EDFF" stroke-width="0.5" stroke-linecap="round" stroke-dasharray="2.7"></path>
                <polygon id="Path" fill="#C8E9F9" fill-rule="nonzero" points="227.9 491.2 281.8 522.3 299.7 512 245.8 480.9"></polygon>
                <polygon id="Path" fill="#86C3F2" fill-rule="nonzero" points="281.8 522.3 299.7 512 299.7 514.5 281.8 524.7"></polygon>
                <polygon id="Path" fill="url(#linearGradient-18)" fill-rule="nonzero" points="227.9 491.2 281.8 522.3 281.8 524.7 227.9 493.5"></polygon>
                <polygon id="Path" fill="#B0E1F9" fill-rule="nonzero" points="278.5 555.6 224.6 524.5 206.7 534.9 260.6 566"></polygon>
                <path d="M282.4,555.6 L228.5,524.5 L210.5,534.9 L264.4,566 L282.4,555.6 Z" id="Path" stroke="#D7EDFF" stroke-width="0.5" stroke-linecap="round" stroke-dasharray="2.7"></path>
                <polygon id="Path" fill="#C8E9F9" fill-rule="nonzero" points="207 519.6 260.9 550.8 278.9 540.4 225 509.3"></polygon>
                <polygon id="Path" fill="#86C3F2" fill-rule="nonzero" points="260.9 550.8 278.9 540.4 278.9 543 260.9 553.1"></polygon>
                <polygon id="Path" fill="url(#linearGradient-19)" fill-rule="nonzero" points="207 519.6 260.9 550.8 260.9 553.1 207 522"></polygon>
                <g id="Group" transform="translate(283.000000, 442.000000)" fill-rule="nonzero">
                    <path d="M0.4,22.7 L39.4,0.2 L99.9,35.1 L63.5,56.1 C61.9,57 59.9,57 58.3,56.1 L0.4,22.7 Z" id="Path" stroke="#9ACFF7" stroke-width="0.5" fill="url(#linearGradient-20)"></path>
                    <path d="M100.1,23 L61.1,45.4 L61.1,45.4 L61.1,45.4 C63.7,46.9 65.3,49.7 65.3,52.6 L65.3,52.6 C65.3,54.2 64.4,55.5 63.2,56.2 L63.2,56.2 L102,33.9 C103.3,33.2 104.2,31.9 104.2,30.2 L104.2,30.2 C104.2,27.3 102.7,24.5 100.1,23 Z" id="Path" fill="url(#linearGradient-21)"></path>
                </g>
                <path d="M295.8,466 L320.7,451.6 C321,451.4 321.3,451.4 321.6,451.6 L321.6,451.6 C321.9,451.7 321.9,452.1 321.6,452.2 L296.7,466.7 C296.4,466.9 296.1,466.9 295.8,466.7 L295.8,466.7 C295.5,466.5 295.5,466.2 295.8,466 Z" id="Path" fill="#CCE3F1" fill-rule="nonzero"></path>
                <path d="M298.2,467.4 L323.1,453 C323.4,452.8 323.7,452.8 324,453 L324,453 C324.3,453.1 324.3,453.5 324,453.6 L299.1,468.1 C298.8,468.3 298.5,468.3 298.2,468.1 L298.2,468.1 C298,467.9 298,467.6 298.2,467.4 Z" id="Path" fill="#CCE3F1" fill-rule="nonzero"></path>
                <path d="M300.6,468.8 L325.5,454.4 C325.8,454.2 326.1,454.2 326.4,454.4 L326.4,454.4 C326.7,454.5 326.7,454.9 326.4,455 L301.6,469.5 C301.3,469.7 301,469.7 300.7,469.5 L300.7,469.5 C300.4,469.3 300.4,469 300.6,468.8 Z" id="Path" fill="#CCE3F1" fill-rule="nonzero"></path>
                <path d="M303.1,470.2 L328,455.8 C328.3,455.6 328.6,455.6 328.9,455.8 L328.9,455.8 C329.2,455.9 329.2,456.3 328.9,456.4 L304,470.9 C303.7,471.1 303.4,471.1 303.1,470.9 L303.1,470.9 C302.8,470.7 302.8,470.4 303.1,470.2 Z" id="Path" fill="#CCE3F1" fill-rule="nonzero"></path>
                <path d="M305.5,471.6 L330.4,457.2 C330.7,457 331,457 331.3,457.2 L331.3,457.2 C331.6,457.3 331.6,457.7 331.3,457.8 L306.4,472.3 C306.1,472.5 305.8,472.5 305.5,472.3 L305.5,472.3 C305.3,472.1 305.3,471.8 305.5,471.6 Z" id="Path" fill="#CCE3F1" fill-rule="nonzero"></path>
                <path d="M330.5,486.4 L355.4,472 C355.7,471.8 356,471.8 356.3,472 L356.3,472 C356.6,472.1 356.6,472.5 356.3,472.6 L331.4,487.1 C331.1,487.3 330.8,487.3 330.5,487.1 L330.5,487.1 C330.2,486.9 330.2,486.6 330.5,486.4 Z" id="Path" fill="#CCE3F1" fill-rule="nonzero"></path>
                <path d="M332.9,487.8 L357.8,473.4 C358.1,473.2 358.4,473.2 358.7,473.4 L358.7,473.4 C359,473.5 359,473.9 358.7,474 L333.8,488.5 C333.5,488.7 333.2,488.7 332.9,488.5 L332.9,488.5 C332.7,488.3 332.7,488 332.9,487.8 Z" id="Path" fill="#CCE3F1" fill-rule="nonzero"></path>
                <path d="M326.4,483.8 L351.3,469.4 C351.6,469.2 351.9,469.2 352.2,469.4 L352.2,469.4 C352.5,469.5 352.5,469.9 352.2,470 L327.4,484.4 C327.1,484.6 326.8,484.6 326.5,484.4 L326.5,484.4 C326.2,484.3 326.2,483.9 326.4,483.8 Z" id="Path" fill="url(#linearGradient-22)" fill-rule="nonzero" opacity="0.7"></path>
                <g id="Group" transform="translate(363.099990, 686.399983)" fill-rule="nonzero">
                    <g id="Path">
                        <path d="M104.4,22.7 L65.4,0.2 L4.9,35.2 L41.3,56.2 C42.9,57.1 44.9,57.1 46.5,56.2 L104.4,22.7 Z" stroke="#9ACFF7" stroke-width="0.5" fill="url(#linearGradient-23)"></path>
                        <path d="M4.7,23 L43.7,45.4 L43.7,45.4 L43.7,45.4 C41.1,46.9 39.5,49.7 39.5,52.6 L39.5,52.6 C39.5,54.2 40.4,55.5 41.6,56.2 L41.6,56.2 L2.8,33.9 C1.5,33.2 0.6,31.9 0.6,30.2 L0.6,30.2 C0.6,27.3 2.2,24.5 4.7,23 Z" fill="#99D3EF"></path>
                    </g>
                    <path d="M92,24 L67.1,9.6 C66.8,9.4 66.5,9.4 66.2,9.6 L66.2,9.6 C65.9,9.7 65.9,10.1 66.2,10.2 L91.1,24.6 C91.4,24.8 91.7,24.8 92,24.6 L92,24.6 C92.3,24.5 92.3,24.2 92,24 Z" id="Path" fill="#CCE3F1"></path>
                    <path d="M89.6,25.5 L64.7,11.1 C64.4,10.9 64.1,10.9 63.8,11.1 L63.8,11.1 C63.5,11.2 63.5,11.6 63.8,11.7 L88.7,26.1 C89,26.3 89.3,26.3 89.6,26.1 L89.6,26.1 C89.8,25.9 89.8,25.6 89.6,25.5 Z" id="Path" fill="#CCE3F1"></path>
                    <path d="M87.2,26.8 L62.2,12.4 C61.9,12.2 61.6,12.2 61.3,12.4 L61.3,12.4 C61,12.5 61,12.9 61.3,13 L86.2,27.4 C86.5,27.6 86.8,27.6 87.1,27.4 L87.1,27.4 C87.4,27.3 87.4,27 87.2,26.8 Z" id="Path" fill="#CCE3F1"></path>
                    <path d="M84.7,28.2 L59.8,13.8 C59.5,13.6 59.2,13.6 58.9,13.8 L58.9,13.8 C58.6,13.9 58.6,14.3 58.9,14.4 L83.8,28.8 C84.1,29 84.4,29 84.7,28.8 L84.7,28.8 C85,28.7 85,28.4 84.7,28.2 Z" id="Path" fill="#CCE3F1"></path>
                    <path d="M82.3,29.6 L57.4,15.2 C57.1,15 56.8,15 56.5,15.2 L56.5,15.2 C56.2,15.3 56.2,15.7 56.5,15.8 L81.4,30.2 C81.7,30.4 82,30.4 82.3,30.2 L82.3,30.2 C82.6,30.1 82.6,29.8 82.3,29.6 Z" id="Path" fill="#CCE3F1"></path>
                    <path d="M57.3,44.5 L32.4,30.1 C32.1,29.9 31.8,29.9 31.5,30.1 L31.5,30.1 C31.2,30.2 31.2,30.6 31.5,30.7 L56.4,45.1 C56.7,45.3 57,45.3 57.3,45.1 L57.3,45.1 C57.6,45 57.6,44.6 57.3,44.5 Z" id="Path" fill="#CCE3F1"></path>
                    <path d="M54.9,45.9 L30,31.5 C29.7,31.3 29.4,31.3 29.1,31.5 L29.1,31.5 C28.8,31.6 28.8,32 29.1,32.1 L54,46.5 C54.3,46.7 54.6,46.7 54.9,46.5 L54.9,46.5 C55.2,46.4 55.2,46 54.9,45.9 Z" id="Path" fill="#CCE3F1"></path>
                    <path d="M61.4,41.8 L36.4,27.4 C36.1,27.2 35.8,27.2 35.5,27.4 L35.5,27.4 C35.2,27.5 35.2,27.9 35.5,28 L60.4,42.4 C60.7,42.6 61,42.6 61.3,42.4 L61.3,42.4 C61.6,42.3 61.6,41.9 61.4,41.8 Z" id="Path" fill="#CCE3F1"></path>
                </g>
                <g id="Group" transform="translate(385.599990, 673.799983)" fill-rule="nonzero">
                    <polygon id="Path" fill="#D6EDF9" points="0.5 7.2 11.9 0.6 23.3 7.2 11.9 13.7"></polygon>
                    <polygon id="Path" fill="#99D3EF" points="14.9 9.8 26.3 3.2 37.7 9.8 26.3 16.3"></polygon>
                    <polygon id="Path" fill="#5895B3" points="26.3 16.3 26.3 16.6 37.7 10.1 37.7 9.8"></polygon>
                    <polygon id="Path" fill="#5895B3" points="14.9 9.8 26.3 16.3 26.3 16.6 14.9 10.1"></polygon>
                    <polygon id="Path" fill="#5895B3" points="11.9 13.7 11.9 14 16.8 11.2 16.6 11"></polygon>
                    <polygon id="Path" fill="#5895B3" points="0.5 7.2 11.9 13.7 11.9 14 0.5 7.5"></polygon>
                </g>
                <polygon id="Path" fill="#E7F3FC" fill-rule="nonzero" points="280.7 672.8 334.6 641.7 352.6 652.1 298.7 683.2"></polygon>
                <path d="M287,674.6 L340.9,643.5 L358.9,653.9 L304.9,685 L287,674.6 Z" id="Path" stroke="#D7EDFF" stroke-width="0.5" stroke-linecap="round" stroke-dasharray="2.7"></path>
                <polygon id="Path" fill="#C8E9F9" fill-rule="nonzero" points="283.9 640.4 337.8 609.3 355.7 619.6 301.8 650.8"></polygon>
                <polygon id="Path" fill="#86C3F2" fill-rule="nonzero" points="283.9 640.4 283.9 642.7 301.8 653.2 301.8 650.8"></polygon>
                <polygon id="Path" fill="url(#linearGradient-24)" fill-rule="nonzero" points="355.7 619.6 301.8 650.8 301.8 653.2 355.7 622.1"></polygon>
                <polygon id="Path" fill="#C8E9F9" fill-rule="nonzero" points="319.5 675.4 373.4 644.3 391.4 654.6 337.5 685.8"></polygon>
                <polygon id="Path" fill="#86C3F2" fill-rule="nonzero" points="319.5 675.4 319.5 677.8 337.5 688.2 337.5 685.8"></polygon>
                <polygon id="Path" fill="url(#linearGradient-25)" fill-rule="nonzero" points="391.4 654.6 337.5 685.8 337.5 688.2 391.4 657.1"></polygon>
                <path d="M255.4,288 L307.5,258 L281.5,243 L255.5,258 L255.5,197.9" id="Path" stroke="#B3DAFF" stroke-width="0.5" stroke-linecap="round" stroke-dasharray="3.9137"></path>
                <g id="Group" transform="translate(153.906568, 214.037003)" fill-rule="nonzero">
                    <g transform="translate(0.864940, 0.000000)" id="Path">
                        <polygon fill="#00CEEE" points="0.8 42.7 0.8 80.9 6.7 84.4 58.3 54.7 58.3 54.7 58.3 16.4 58.3 16.4 58.3 16.4 48.7 10.9"></polygon>
                        <polygon fill="#56CFFF" points="6.7 46.2 0.8 42.7 48.7 10.9 58.3 16.4"></polygon>
                        <polygon fill="url(#linearGradient-26)" points="0.8 42.7 6.7 46.2 34.5 57.2 58.3 16.4 58.3 16.4 48.7 10.9 26.5 3.1"></polygon>
                        <g transform="translate(0.049954, 2.419981)">
                            <polygon fill="#BDEBFF" points="26.4 0.6 26.4 0.6 48.7 8.5 52.3 10.5"></polygon>
                            <polygon fill="url(#linearGradient-27)" points="52.3 10.5 0.7 40.3 26.4 0.6"></polygon>
                        </g>
                        <g transform="translate(12.259944, 0.000000)">
                            <polygon fill="#C1F2F7" points="0.8 21.7 1.1 76.6 1.9 79.1 38.6 58 38.6 1.1 37.5 0.5"></polygon>
                            <polygon fill="#D5F1F9" points="1.9 79.1 0.6 76.6 0.8 21.7 1.9 22.3"></polygon>
                        </g>
                        <polygon fill="#E6FAFF" points="14.1 22.3 13 21.7 49.7 0.5 50.8 1.1"></polygon>
                        <polygon fill="#FFFFFF" points="50.8 1.1 50.8 58 14.1 79.1 14.1 22.3"></polygon>
                        <g transform="translate(20.309898, 14.519889)" fill="#CCE3F1">
                            <path d="M1.1,31.2 L23.5,18.3 C23.9,18.1 24.4,18.3 24.4,18.8 L24.4,18.8 C24.4,19.6 24,20.3 23.3,20.7 L1,33.6 C0.6,33.8 0.1,33.6 0.1,33.1 L0.1,33.1 C0.1,32.3 0.5,31.6 1.1,31.2 Z"></path>
                            <path d="M1.1,25.3 L23.4,12.4 C23.8,12.2 24.3,12.4 24.3,12.9 L24.3,12.9 C24.3,13.7 23.9,14.4 23.2,14.8 L0.9,27.7 C0.5,27.9 0,27.7 0,27.2 L0,27.2 C0,26.4 0.5,25.7 1.1,25.3 Z"></path>
                            <path d="M1.1,19.5 L23.4,6.5 C23.8,6.3 24.3,6.5 24.3,7 L24.3,7 C24.3,7.8 23.9,8.5 23.2,8.9 L0.9,21.8 C0.5,22 0,21.8 0,21.3 L0,21.3 C0,20.6 0.4,19.8 1.1,19.5 Z"></path>
                            <path d="M1.1,13.6 L23.4,0.7 C23.8,0.5 24.3,0.7 24.3,1.2 L24.3,1.2 C24.3,2 23.9,2.7 23.2,3.1 L0.9,16 C0.5,16.2 0,16 0,15.5 L0,15.5 C0,14.7 0.4,14 1.1,13.6 Z"></path>
                        </g>
                        <polygon fill="url(#linearGradient-28)" points="34.5 57.2 6.7 46.2 6.7 84.4 58.3 54.7 58.3 16.4"></polygon>
                        <g transform="translate(0.000000, 42.744681)">
                            <polygon fill="url(#linearGradient-29)" points="58.3 11.9 6.7 41.7 27.9 11.9 40.1 4.9"></polygon>
                            <polygon fill="url(#linearGradient-30)" points="6.7 41.7 0.8 38.2 0.8 0 6.7 3.4"></polygon>
                        </g>
                    </g>
                </g>
                <g id="Group" transform="translate(398.000000, 334.000000)" fill-rule="nonzero">
                    <path d="M47.1,1.8 L47.1,107.2 C47.1,107.7 47.3,108 47.9,108.4 C49.1,109.1 50.9,109.1 51.9,108.4 C52.5,108 52.7,107.7 52.7,107.2 L52.7,1.8 L52.7,1.8 C52.7,1.3 52.5,1 51.9,0.6 C50.7,-0.1 48.9,4.16333634e-17 47.9,0.6 C47.3,0.9 47,1.3 47.1,1.8 L47.1,1.8 Z" id="Path" fill="url(#linearGradient-31)"></path>
                    <path d="M47.9,2.9 C49.1,3.6 50.9,3.6 51.9,2.9 C52.5,2.5 52.7,2.2 52.7,1.7 L52.7,107.1 C52.7,107.6 52.5,107.9 51.9,108.3 C50.7,109 48.9,109 47.9,108.3 C47.3,107.9 47.1,107.6 47.1,107.1 L47.1,1.8 C47.1,2.2 47.3,2.6 47.9,2.9 Z" id="Path" fill="url(#linearGradient-32)"></path>
                    <polygon id="Path" fill="#69F2FF" points="0.4 25.5 0.5 67.7 2.2 68.7 23.2 56.6 23.2 61.9 49.4 46.8 49.2 4.6 47.6 3.7 29.6 14 29.6 8.7"></polygon>
                    <polygon id="Path" fill="url(#linearGradient-33)" points="29.6 8.7 29.7 50.9 27.2 57.6 27.1 15.5"></polygon>
                    <polygon id="Path" fill="url(#linearGradient-34)" points="25.6 12.9 25.7 55 2.2 68.7 2 26.5"></polygon>
                    <polygon id="Path" fill="url(#linearGradient-35)" points="49.2 4.6 49.4 46.8 23.2 61.9 23.1 19.7"></polygon>
                    <polygon id="Path" fill="url(#linearGradient-36)" points="2 26.5 2.2 68.7 0.5 67.7 0.4 25.5"></polygon>
                    <polygon id="Path" fill="url(#linearGradient-37)" points="29.6 8.7 27.1 15.5 47.6 3.7 49.2 4.6 23.1 19.7 25.6 12.9 2 26.5 0.4 25.5"></polygon>
                </g>
                <path d="M201.2,631.9 C201.3,631.8 201.5,631.8 201.6,631.7 L183.9,621.4 L201.4,611.2 L201.4,598 C185.3,588.7 159.3,588.7 143.3,598 C135.4,602.7 131.4,608.7 131.4,614.8 L131.4,614.8 L131.4,628 C131.4,634.1 135.4,640.2 143.5,644.9 C159.6,654.2 185.6,654.2 201.6,644.9 L201.6,631.7 C201.5,631.8 201.3,631.9 201.2,631.9 Z" id="Path" fill="#99D3EF" fill-rule="nonzero"></path>
                <polygon id="Path" fill="#74C2EA" fill-rule="nonzero" points="183.9 621.5 201.4 611.3 201.4 598.1 172.5 614.9"></polygon>
                <path d="M218.8,607 C219,600.8 215,594.5 206.7,589.8 L177.8,606.5 L177.8,627.6 L206.9,644.4 C214.8,639.8 218.8,633.7 218.8,627.7 L218.8,606.6 C218.8,606.8 218.8,606.9 218.8,607 Z" id="Path" fill="#73C2EA" fill-rule="nonzero"></path>
                <path d="M218.8,606.6 L218.8,627.7 C218.8,633.7 214.8,639.8 206.9,644.4 L206.9,623.3 C214.9,618.7 218.8,612.7 218.8,606.6 Z" id="Path" fill="#56ABD7" fill-rule="nonzero"></path>
                <polygon id="Path" fill="#56ABD7" fill-rule="nonzero" points="206.9 623.3 206.9 644.4 177.8 627.6 177.9 606.5"></polygon>
                <path d="M131.4,628 L131.4,614.8 C131.4,620.9 135.4,627 143.5,631.7 C159.6,641 185.6,641 201.6,631.7 L201.6,644.9 C185.6,654.2 159.6,654.2 143.5,644.9 C135.4,640.2 131.3,634.1 131.4,628 Z" id="Path" fill="#74C2EA" fill-rule="nonzero"></path>
                <path d="M172.5,614.9 L201.6,631.7 C185.6,641 159.6,640.9 143.5,631.7 C127.4,622.5 127.3,607.4 143.3,598.1 L172.5,614.9 Z" id="Path" fill="#99D3EF" fill-rule="nonzero"></path>
                <path d="M409.4,244.6 C409.4,240.4 412.6,238.5 416.2,240.8 C420,242.9 423,248.2 423,252.4 C423,256.6 419.8,258.5 416.2,256.2 C412.6,254.1 409.4,248.8 409.4,244.6 Z" id="Path" fill="#74C9FF" fill-rule="nonzero"></path>
                <path d="M436.1,260.2 C436.1,256 439.3,254.1 442.9,256.4 C446.7,258.5 449.7,263.8 449.7,268 C449.7,272.2 446.7,274.1 442.9,272 C439,270 436.1,264.7 436.1,260.2 Z" id="Path" fill="#A2DBFF" fill-rule="nonzero"></path>
                <path d="M463.1,276.3 C463.1,272.1 466.3,270.2 469.9,272.5 C473.5,274.8 476.7,279.9 476.7,284.1 C476.7,288.3 473.7,290.2 469.9,288.1 C466.1,286.1 463.1,280.6 463.1,276.3 Z" id="Path" fill="#D1EDFF" fill-rule="nonzero"></path>
            </g>
        </g>
    </g>
</svg>