<svg width="26" height="23" viewBox="0 0 26 23" fill="none" xmlns="http://www.w3.org/2000/svg">
<g id="Group 14">
<g id="Group 3">
<mask id="mask0" mask-type="alpha" maskUnits="userSpaceOnUse" x="0" y="0" width="26" height="22">
<path id="Clip 2" fill-rule="evenodd" clip-rule="evenodd" d="M0 0.123779H25.9021V21.8481H0V0.123779Z" fill="white"/>
</mask>
<g mask="url(#mask0)">
<path id="Fill 1" fill-rule="evenodd" clip-rule="evenodd" d="M25.0666 19.7592C25.0666 20.4503 24.5043 21.0126 23.8133 21.0126H2.08891C1.39792 21.0126 0.835587 20.4503 0.835587 19.7592V7.22596C0.835587 6.53498 1.39792 5.97264 2.08891 5.97264H23.8133C24.5043 5.97264 25.0666 6.53498 25.0666 7.22596V19.7592ZM5.84899 5.13706H7.52016V4.30147H5.84899V5.13706ZM8.3555 0.959367H17.5467C18.6985 0.959367 19.6356 1.89639 19.6356 3.04815V3.46588H18.8V3.04815C18.8 2.35717 18.2377 1.79483 17.5467 1.79483H8.3555C7.66452 1.79483 7.10218 2.35717 7.10218 3.04815V3.46588H6.26672V3.04815C6.26672 1.89639 7.20386 0.959367 8.3555 0.959367ZM7.93777 3.58216V3.04815C7.93777 2.81757 8.12542 2.63042 8.3555 2.63042H17.5467C17.7768 2.63042 17.9644 2.81757 17.9644 3.04815V3.58216C17.7158 3.72713 17.5467 3.99358 17.5467 4.30147V5.13706H8.3555V4.30147C8.3555 3.99358 8.18641 3.72713 7.93777 3.58216ZM18.3822 5.13706H20.0534V4.30147H18.3822V5.13706ZM23.8133 5.13706H20.8889V4.30147C20.8889 3.99358 20.7196 3.72713 20.4711 3.58216V3.04815C20.4711 1.43598 19.1593 0.123779 17.5467 0.123779H8.3555C6.74296 0.123779 5.43126 1.43598 5.43126 3.04815V3.58216C5.18262 3.72713 5.0134 3.99358 5.0134 4.30147V5.13706H2.08891C0.937144 5.13706 0 6.07408 0 7.22596V19.7592C0 20.911 0.937144 21.8482 2.08891 21.8482H23.8133C24.9652 21.8482 25.9022 20.911 25.9022 19.7592V7.22596C25.9022 6.07408 24.9652 5.13706 23.8133 5.13706Z" fill="white"/>
</g>
</g>
<path id="Stroke 4" fill-rule="evenodd" clip-rule="evenodd" d="M15.9853 11.4808C15.9853 13.1566 14.6267 14.5151 12.9511 14.5151C11.2751 14.5151 9.9165 13.1566 9.9165 11.4808C9.9165 9.80488 11.2751 8.44629 12.9511 8.44629C14.6267 8.44629 15.9853 9.80488 15.9853 11.4808Z" stroke="#33BBFF" stroke-width="0.737494" stroke-linecap="round"/>
<path id="Stroke 6" d="M0.835449 17.7998L2.88292 17.2104C5.30099 16.5143 7.84684 16.3163 10.3514 16.6295L15.5143 17.3986C18.278 17.7443 21.0877 17.5006 23.7404 16.6855L25.0665 16.1544" stroke="white" stroke-width="0.755678" stroke-linecap="round"/>
<path id="Stroke 8" d="M0.835449 19.7631L2.88292 19.1736C5.30099 18.4776 7.84684 18.2797 10.3514 18.5927L15.5143 19.362C18.278 19.7076 21.0877 19.464 23.7404 18.6489L25.0665 18.1176" stroke="white" stroke-width="0.755678" stroke-linecap="round"/>
<mask id="mask1" mask-type="alpha" maskUnits="userSpaceOnUse" x="0" y="0" width="26" height="22">
<path id="Clip 11" fill-rule="evenodd" clip-rule="evenodd" d="M0 21.8481H25.9021V0.123718H0V21.8481Z" fill="white"/>
</mask>
<g mask="url(#mask1)">
<path id="Fill 10" fill-rule="evenodd" clip-rule="evenodd" d="M0.835693 12.038H9.91681V10.986H0.835693V12.038Z" fill="#33BBFF"/>
<path id="Fill 12" fill-rule="evenodd" clip-rule="evenodd" d="M16.1987 12.038H25.0665V10.986H16.1987V12.038Z" fill="#33BBFF"/>
<path id="Stroke 13" fill-rule="evenodd" clip-rule="evenodd" d="M11.906 10.5937H13.9963V7.05603H11.906V10.5937Z" stroke="white" stroke-width="0.755678" stroke-linecap="round"/>
</g>
</g>
</svg>
