<svg width="27" height="26" viewBox="0 0 27 26" fill="none" xmlns="http://www.w3.org/2000/svg">
<g id="Group 14">
<g id="Group 3">
<mask id="mask0" mask-type="alpha" maskUnits="userSpaceOnUse" x="4" y="0" width="22" height="22">
<path id="Clip 2" fill-rule="evenodd" clip-rule="evenodd" d="M4.63208 0.155273H25.7403V21.2601H4.63208V0.155273Z" fill="white"/>
</mask>
<g mask="url(#mask0)">
<path id="Fill 1" fill-rule="evenodd" clip-rule="evenodd" d="M14.6113 19.8053C15.0788 18.7003 15.2279 17.4846 15.0408 16.2792C16.1318 15.8393 17.1709 15.2781 18.1443 14.6166C18.0197 16.106 17.3754 17.5261 16.3085 18.593C15.8097 19.0918 15.2347 19.5005 14.6113 19.8053ZM13.1055 16.1776L9.71795 12.7901C11.1624 7.68804 15.4218 3.40776 20.3265 1.79363L24.0985 5.56568C22.4914 10.4773 18.2077 14.7332 13.1055 16.1776ZM6.08689 11.2879C6.39512 10.6609 6.80397 10.086 7.29932 9.59068C8.36609 8.52375 9.7827 7.87608 11.2721 7.75139C10.6141 8.72127 10.0529 9.7604 9.60956 10.855C8.4077 10.6713 7.19528 10.8168 6.08689 11.2879ZM23.6172 1.12173L24.8745 1.02127L24.774 2.27857C24.7082 3.09953 24.5661 3.90652 24.3549 4.69984L21.1925 1.53742C21.9891 1.3295 22.7961 1.18757 23.6172 1.12173ZM18.9549 14.0346C22.6507 11.2048 25.1999 6.90279 25.5638 2.34099L25.7403 0.155273L23.5513 0.32841C18.9929 0.695646 14.6909 3.24503 11.8611 6.94083C9.94901 6.92701 8.09248 7.67515 6.73814 9.0295C5.90335 9.86428 5.28674 10.8964 4.94388 12.0222L4.63208 13.0543L5.53969 12.4725C6.6723 11.7486 7.99901 11.4542 9.32897 11.6205C9.20429 11.9738 8.98363 12.4438 8.88674 12.804L8.82432 13.0256L12.8666 17.0679L13.0883 17.0056C13.4485 16.9085 13.9186 16.6879 14.2718 16.5632C14.4381 17.8863 14.1471 19.2165 13.4197 20.3526L12.8378 21.2601L13.87 20.9483C14.9923 20.6088 16.028 19.989 16.8593 19.1576C18.2206 17.8033 18.9687 15.9466 18.9549 14.0346Z" fill="white"/>
</g>
</g>
<path id="Stroke 4" d="M8.00041 24.9461C8.00041 24.9461 7.59948 22.3546 8.71345 21.3687C10.072 20.1663 12.2537 19.9541 11.7948 16.9956" stroke="#33BBFF" stroke-width="0.621118" stroke-linecap="round"/>
<path id="Stroke 6" d="M1 17.9458C1 17.9458 3.59146 18.3467 4.57748 17.2328C5.77981 15.8742 5.99193 13.6926 8.95047 14.1514" stroke="#33BBFF" stroke-width="0.621118" stroke-linecap="round"/>
<path id="Stroke 8" d="M10.3499 15.551L4.47754 21.4234" stroke="#33BBFF" stroke-width="0.621118" stroke-linecap="round"/>
<path id="Fill 10" fill-rule="evenodd" clip-rule="evenodd" d="M17.2848 7.98895H17.6187C18.1971 7.98895 18.3381 7.65975 18.3381 7.38243C18.3381 7.10494 18.1971 6.80867 17.6187 6.80867H17.2848V7.98895ZM17.2848 9.16923V9.82295H16.7769V9.16923H16.3679V8.76488H16.7769V8.42621H16.3679V7.98895H16.7769V6.34314H17.6187C18.451 6.34314 18.846 6.76162 18.846 7.39174C18.846 8.02668 18.451 8.42621 17.6187 8.42621H17.2848V8.76488H18.1737V9.16923H17.2848Z" fill="#33BBFF"/>
<path id="Stroke 12" fill-rule="evenodd" clip-rule="evenodd" d="M20.6028 8.08297C20.6028 9.73747 19.2615 11.0788 17.6071 11.0788C15.9525 11.0788 14.6113 9.73747 14.6113 8.08297C14.6113 6.42846 15.9525 5.08716 17.6071 5.08716C19.2615 5.08716 20.6028 6.42846 20.6028 8.08297Z" stroke="white" stroke-width="0.5" stroke-linecap="round"/>
</g>
</svg>
