<svg width="26" height="27" viewBox="0 0 26 27" fill="none" xmlns="http://www.w3.org/2000/svg">
<g id="Group 14">
<g id="Group 3">
<mask id="mask0" mask-type="alpha" maskUnits="userSpaceOnUse" x="0" y="0" width="26" height="27">
<path id="Clip 2" fill-rule="evenodd" clip-rule="evenodd" d="M0 0.224609H26V26.2493H0V0.224609Z" fill="white"/>
</mask>
<g mask="url(#mask0)">
<path id="Fill 1" fill-rule="evenodd" clip-rule="evenodd" d="M25.0895 20.7191C24.6014 23.4436 22.243 25.436 19.5185 25.436H19.112C18.9086 25.436 18.7053 25.3954 18.5426 25.3548C15.4522 24.8261 13.419 21.8577 13.9477 18.7672C14.3949 16.1648 16.5501 14.2535 19.112 14.0503H19.5185C19.8438 14.0503 20.1692 14.091 20.4945 14.1316C23.585 14.6602 25.6181 17.6286 25.0895 20.7191V20.7191ZM0.813231 25.4361V1.03792H14.6388V4.69766C14.6388 4.94162 14.8016 5.10435 15.0455 5.10435H18.7053V13.2777C15.8587 13.6436 13.6629 15.7581 13.175 18.6046C12.6464 21.4105 14.0289 24.2161 16.3468 25.4361H0.813231ZM15.4522 1.60715L18.136 4.29093H15.4522V1.60715ZM20.6572 13.3182C20.2912 13.2777 19.9252 13.237 19.5185 13.237V4.69761C19.5185 4.57556 19.4778 4.49419 19.3964 4.41282L15.3301 0.346539C15.2488 0.265171 15.1676 0.224487 15.0455 0.224487H0.406538C0.162585 0.224487 0 0.387222 0 0.631175V25.8427C0 26.046 0.162585 26.2494 0.406538 26.2494H19.1119C19.1526 26.2494 19.1932 26.2494 19.2338 26.2087H19.5185C22.6496 26.2087 25.3334 23.9315 25.9027 20.841C26.5126 17.3033 24.1949 13.9282 20.6572 13.3182V13.3182Z" fill="white"/>
</g>
</g>
<path id="Fill 4" fill-rule="evenodd" clip-rule="evenodd" d="M22.5698 16.9519L17.9341 21.5062L16.5922 20.1643C16.4295 20.0017 16.1856 20.0017 16.0228 20.1643C15.8602 20.3268 15.8602 20.5709 16.0228 20.7335L17.6494 22.3601C17.7308 22.4415 17.8527 22.4822 17.9341 22.4822C18.0561 22.4822 18.1375 22.4415 18.2187 22.3601L23.139 17.5212C23.3018 17.3584 23.3018 17.1145 23.139 16.9519C22.9764 16.7892 22.7323 16.7892 22.5698 16.9519" fill="#33BBFF"/>
<path id="Stroke 6" d="M3.07397 10.6825C3.07397 10.6825 5.81265 8.42818 7.71147 9.04965C10.0272 9.80754 11.7495 12.2091 14.8753 9.63403" stroke="#33BBFF" stroke-width="1.28" stroke-linecap="round"/>
<path id="Stroke 8" d="M3.07397 5.45492C3.07397 5.45492 5.03203 3.85913 6.39404 4.30456C8.05504 4.84751 9.29425 6.55713 11.529 4.73428" stroke="#33BBFF" stroke-width="1.28" stroke-linecap="round"/>
<path id="Stroke 10" d="M3.07397 13.434C3.07397 13.434 5.81265 11.1796 7.71147 11.8011C10.0272 12.559 11.7495 14.9605 14.8753 12.3855" stroke="#33BBFF" stroke-width="1.28" stroke-linecap="round"/>
<path id="Stroke 12" d="M3.07397 18.1685C3.07397 18.1685 5.03203 16.5727 6.39404 17.018C8.05504 17.5611 9.29425 19.2706 11.529 17.4479" stroke="#33BBFF" stroke-width="1.28" stroke-linecap="round"/>
</g>
</svg>
